<svg height="495" viewBox="0 0 475 495" width="475" xmlns="http://www.w3.org/2000/svg"><g fill="#fff"><path d="m162 405 7 7 118-21 51-42h32l-69 61-33 7v78h-64v-68l-38 10-31-24z"/><path d="m2 301c2.441-3.986 7.092-8.584 10-11 2.947-2.449 7.146-5.173 28 1 41.737 12.354 114.25 7.857 185 2s119.99-18.764 217 1c35.903 7.315 32.238 36.217 32 42-.38 9.218 4.53 13.334-45 6s-101.252-.1-130 4-50.952 5.745-91 26-59.491 36.532-85 30-109.72-59.745-117-68c-7.39-8.38-6.714-8.628-4-33z"/><path d="m239 0c40.317 0 73 32.683 73 73s-43.37 129.555-73 194c-29.148-62.466-73-153.683-73-194s32.683-73 73-73zm-48 72.5c0 26.786 21.714 48.5 48.5 48.5s48.5-21.714 48.5-48.5-21.714-48.5-48.5-48.5-48.5 21.714-48.5 48.5z"/></g></svg>