<svg xmlns="http://www.w3.org/2000/svg" width="124" height="124" viewBox="0 0 124 124"><g><g><path fill="#fff" d="M62 0c34.242 0 62 27.758 62 62 0 34.242-27.758 62-62 62-34.242 0-62-27.758-62-62C0 27.758 27.758 0 62 0zm-3 111.911V69.243l-30.17 30.17c8.127 7.212 18.621 11.815 30.17 12.498zM12.089 65c.683 11.549 5.286 22.043 12.498 30.17L54.757 65zM59 12.089c-11.549.683-22.043 5.286-30.17 12.498L59 54.757zM12.089 59h42.668l-30.17-30.17C17.375 36.956 12.772 47.45 12.089 59zM65 12.089v42.668l30.17-30.17C87.044 17.375 76.55 12.772 65 12.089zM111.911 59c-.683-11.549-5.286-22.043-12.498-30.17L69.243 59zM65 111.911c11.549-.683 22.043-5.286 30.17-12.498L65 69.243zM111.911 65H69.243l30.17 30.17c7.212-8.127 11.815-18.621 12.498-30.17zM56 62a6 6 0 1 0 12 0 6 6 0 0 0-12 0z"/></g></g></svg>