<svg height="512" viewBox="0 0 512 512" width="512" xmlns="http://www.w3.org/2000/svg"><g fill="#fff"><path d="m224 118c10.133 0 113.663 43.709 130 51s23.1 15.316 19 30-59.946 87.265-63 91c-4.262 5.212-16.824 10.926-28 2-10.567-8.44-9.09-22.654-4-30 4.929-7.114 31.145-51.425 32-53s4.081-6.764-3-9-36.2-13.279-38-14-5.012.053-5 6 0 82.258 0 88c0 40.8 26.059 85.039 47 106 21.633 21.653 73.313 53 120 53 25.163 0 35 9.112 35 25s-11.249 26-38 26c-75.362 0-168.434-20.045-233-137h-77c-3.528 0-5 1.737-5 5v106c0 10.408-10.5 26-26 26-16.393 0-30-10.28-30-23v-151c0-8.328 3.107-32 28-32h86c3.573 0 5.2.807 4-5-2.732-13.2-4.731-45.087-4-70s3.42-65.457 29-82c12.118-7.836 13.867-9 24-9z" fill-rule="evenodd"/><circle cx="177" cy="67" r="53"/></g></svg>