<svg height="440" viewBox="0 0 512 440" width="512" xmlns="http://www.w3.org/2000/svg"><g fill="#fff" fill-rule="evenodd" transform="translate(0 -5)"><path d="m257.005 96.074h-207.005a25 25 0 0 0 -25 24.995v273.942a25 25 0 0 0 25 24.994h412a25 25 0 0 0 25-24.994v-273.942a24.942 24.942 0 0 0 -9.006-19.211c0-7.848.01-19.929.01-30.341a40 40 0 0 1 34 39.544v293.939a40 40 0 0 1 -40 39.991h-432.004a40 40 0 0 1 -40-39.991v-293.939a40 40 0 0 1 40-39.991h231.007a51.678 51.678 0 0 0 -14.002 25.004z"/><path d="m284.876 61.447 164.594-54.907c15.948-5.32 28.876 3.8 28.876 20.361v313.933c0 16.565-12.928 34.307-28.876 39.627l-164.594 54.906c-15.948 5.32-28.876-3.8-28.876-20.361v-313.933c0-16.565 12.928-34.306 28.876-39.626zm14.438 20.178 134.756-44.953c10.632-3.547 19.25 2.531 19.25 13.574v283.94c0 11.043-8.618 22.871-19.25 26.417l-134.756 44.953c-10.632 3.547-19.251-2.53-19.251-13.574v-283.939c0-11.043 8.619-22.871 19.251-26.418z"/><path d="m310 124.368 115-38.629c3.866-1.3 7 .782 7 4.647s-3.134 8.051-7 9.35l-115 38.629c-3.866 1.3-7-.782-7-4.648s3.134-8.051 7-9.349zm0 45.551 115-38.936c3.866-1.309 7 .784 7 4.674s-3.134 8.1-7 9.414l-115 38.936c-3.866 1.309-7-.783-7-4.674s3.134-8.105 7-9.414zm0 44.984 115-38.96c3.866-1.31 7 .783 7 4.676s-3.134 8.109-7 9.419l-115 38.962c-3.866 1.31-7-.783-7-4.676s3.134-8.112 7-9.424zm0 44.99 115-38.96c3.866-1.31 7 .784 7 4.676s-3.134 8.109-7 9.419l-115 38.96c-3.866 1.31-7-.784-7-4.676s3.134-8.112 7-9.419zm0 44.99 115-38.959c3.866-1.31 7 .783 7 4.675s-3.134 8.11-7 9.419l-115 38.96c-3.866 1.31-7-.784-7-4.676s3.134-8.109 7-9.419zm0 44.991 115-38.96c3.866-1.31 7 .784 7 4.676s-3.134 8.109-7 9.419l-115 38.96c-3.866 1.309-7-.784-7-4.676s3.134-8.109 7-9.419z"/></g></svg>