<svg height="305.812" viewBox="0 0 1040 305.812" width="1040" xmlns="http://www.w3.org/2000/svg"><g fill="#fff" fill-rule="evenodd"><path d="m25.491 305.089a1.807 1.807 0 0 0 1.394-.677 3.1 3.1 0 0 0 .73-1.671l4.145-30.559a2.475 2.475 0 0 0 -.274-1.692 1.349 1.349 0 0 0 -1.213-.655 1.842 1.842 0 0 0 -1.374.655 3 3 0 0 0 -.75 1.692l-4.149 30.559a2.426 2.426 0 0 0 .294 1.671 1.342 1.342 0 0 0 1.193.677zm10.521 0a1.807 1.807 0 0 0 1.394-.677 3.1 3.1 0 0 0 .73-1.671l3.343-24.641 11.587 26.18a1.124 1.124 0 0 0 .525.61 1.558 1.558 0 0 0 .754.2 1.786 1.786 0 0 0 1.356-.655 3.067 3.067 0 0 0 .733-1.693l4.145-30.559a2.475 2.475 0 0 0 -.274-1.692 1.319 1.319 0 0 0 -1.178-.655 1.842 1.842 0 0 0 -1.374.655 3 3 0 0 0 -.75 1.692l-3.349 24.691-11.588-26.18a1.773 1.773 0 0 0 -.542-.61 1.243 1.243 0 0 0 -.73-.248 1.79 1.79 0 0 0 -1.356.655 3.062 3.062 0 0 0 -.733 1.692l-4.145 30.559a2.467 2.467 0 0 0 .273 1.693 1.318 1.318 0 0 0 1.179.655zm49.122-35.254h-18.576a1.68 1.68 0 0 0 -1.281.61 2.817 2.817 0 0 0 -.677 1.555 2.271 2.271 0 0 0 .257 1.557 1.244 1.244 0 0 0 1.115.61h7.5l-3.875 28.572a2.426 2.426 0 0 0 .294 1.671 1.342 1.342 0 0 0 1.193.677 1.827 1.827 0 0 0 1.377-.677 3.033 3.033 0 0 0 .748-1.671l3.875-28.572h7.465a1.683 1.683 0 0 0 1.28-.61 2.818 2.818 0 0 0 .68-1.557 2.271 2.271 0 0 0 -.258-1.557 1.241 1.241 0 0 0 -1.115-.61zm2.683 35.254h15.695a1.8 1.8 0 0 0 1.367-.61 2.846 2.846 0 0 0 .7-1.6 2.124 2.124 0 0 0 -.279-1.535 1.372 1.372 0 0 0 -1.2-.587h-13.89l1.531-11.284h9.966a1.821 1.821 0 0 0 1.349-.61 2.7 2.7 0 0 0 .715-1.557 2.149 2.149 0 0 0 -.292-1.557 1.357 1.357 0 0 0 -1.185-.61h-9.965l1.488-10.968h13.888a1.829 1.829 0 0 0 1.365-.587 2.653 2.653 0 0 0 .694-1.535 2.277 2.277 0 0 0 -.269-1.6 1.344 1.344 0 0 0 -1.2-.61h-15.695a1.842 1.842 0 0 0 -1.374.655 3 3 0 0 0 -.75 1.692l-4.146 30.555a2.426 2.426 0 0 0 .294 1.671 1.342 1.342 0 0 0 1.193.677zm40.594-3.611-3.806-11.105a10.712 10.712 0 0 0 3.91-3.746 13.882 13.882 0 0 0 2.022-5.688 13.327 13.327 0 0 0 -.345-5.777 7.6 7.6 0 0 0 -2.627-3.927 7.077 7.077 0 0 0 -4.41-1.4h-6.25a1.841 1.841 0 0 0 -1.374.655 2.993 2.993 0 0 0 -.75 1.692l-4.145 30.559a2.426 2.426 0 0 0 .294 1.671 1.341 1.341 0 0 0 1.193.677 1.806 1.806 0 0 0 1.393-.677 3.09 3.09 0 0 0 .731-1.671l1.524-11.239h5.07l4.282 12.458a1.447 1.447 0 0 0 1.409 1.129 1.749 1.749 0 0 0 1.35-.61 2.734 2.734 0 0 0 .674-1.512 3.182 3.182 0 0 0 -.145-1.489zm-12.052-14.309 1.763-13h4.444a4.112 4.112 0 0 1 3.632 1.9 6.862 6.862 0 0 1 .867 4.875 7.52 7.52 0 0 1 -2.137 4.492 5.7 5.7 0 0 1 -4.125 1.738h-4.444zm17.674 17.92a1.806 1.806 0 0 0 1.393-.677 3.1 3.1 0 0 0 .731-1.671l3.343-24.641 11.587 26.18a1.124 1.124 0 0 0 .525.61 1.561 1.561 0 0 0 .754.2 1.786 1.786 0 0 0 1.356-.655 3.063 3.063 0 0 0 .733-1.693l4.145-30.559a2.478 2.478 0 0 0 -.274-1.692 1.319 1.319 0 0 0 -1.178-.655 1.841 1.841 0 0 0 -1.374.655 2.993 2.993 0 0 0 -.75 1.692l-3.349 24.691-11.588-26.18a1.774 1.774 0 0 0 -.542-.61 1.243 1.243 0 0 0 -.731-.248 1.79 1.79 0 0 0 -1.356.655 3.059 3.059 0 0 0 -.733 1.692l-4.145 30.559a2.467 2.467 0 0 0 .274 1.693 1.316 1.316 0 0 0 1.179.655zm47.773-3.3-5.671-30.379a1.511 1.511 0 0 0 -1.487-1.58 2.211 2.211 0 0 0 -1.916 1.58l-13.865 30.29a4.083 4.083 0 0 0 -.315 1.038 2.519 2.519 0 0 0 .28 1.648 1.288 1.288 0 0 0 1.173.7 1.678 1.678 0 0 0 1.024-.384 2.935 2.935 0 0 0 .838-1.061l2.837-6.319h12.465l1.087 6.319a1.805 1.805 0 0 0 .534 1.061 1.346 1.346 0 0 0 .937.384 1.825 1.825 0 0 0 1.376-.677 2.955 2.955 0 0 0 .742-1.625 3.518 3.518 0 0 0 -.039-.993zm-8.106-24.416 2.786 16.07h-10.04zm31.092-7.538h-18.581a1.681 1.681 0 0 0 -1.281.61 2.819 2.819 0 0 0 -.68 1.557 2.27 2.27 0 0 0 .257 1.557 1.245 1.245 0 0 0 1.116.61h7.5l-3.875 28.572a2.42 2.42 0 0 0 .294 1.671 1.34 1.34 0 0 0 1.193.677 1.828 1.828 0 0 0 1.376-.677 3.03 3.03 0 0 0 .748-1.671l3.875-28.572h7.466a1.684 1.684 0 0 0 1.281-.61 2.826 2.826 0 0 0 .68-1.557 2.269 2.269 0 0 0 -.258-1.557 1.241 1.241 0 0 0 -1.115-.61zm2.684 35.254a1.806 1.806 0 0 0 1.393-.677 3.1 3.1 0 0 0 .731-1.671l4.145-30.559a2.478 2.478 0 0 0 -.274-1.692 1.35 1.35 0 0 0 -1.214-.655 1.84 1.84 0 0 0 -1.373.655 3 3 0 0 0 -.751 1.692l-4.145 30.559a2.431 2.431 0 0 0 .294 1.671 1.343 1.343 0 0 0 1.194.677zm21.223.451a13.149 13.149 0 0 0 7.465-2.3 18.355 18.355 0 0 0 5.751-6.432 26.192 26.192 0 0 0 3.024-9.367 22.5 22.5 0 0 0 -.486-9.343 12.5 12.5 0 0 0 -4.027-6.41 10.467 10.467 0 0 0 -6.823-2.3 13.228 13.228 0 0 0 -7.482 2.3 18.143 18.143 0 0 0 -5.748 6.41 26.214 26.214 0 0 0 -3 9.343 22.869 22.869 0 0 0 .466 9.367 12.386 12.386 0 0 0 4.006 6.432 10.517 10.517 0 0 0 6.858 2.3zm.576-4.243a7.48 7.48 0 0 1 -5.065-1.828 9.973 9.973 0 0 1 -3-4.988 17.255 17.255 0 0 1 -.365-7.042 19.949 19.949 0 0 1 2.275-7.041 14.447 14.447 0 0 1 4.337-4.966 9.563 9.563 0 0 1 5.575-1.805 7.533 7.533 0 0 1 5.084 1.805 9.888 9.888 0 0 1 2.99 4.966 17.253 17.253 0 0 1 .364 7.041 19.94 19.94 0 0 1 -2.274 7.042 14.559 14.559 0 0 1 -4.357 4.988 9.516 9.516 0 0 1 -5.56 1.828zm20.7 3.792a1.809 1.809 0 0 0 1.394-.677 3.1 3.1 0 0 0 .73-1.671l3.343-24.645 11.587 26.18a1.128 1.128 0 0 0 .525.61 1.561 1.561 0 0 0 .754.2 1.786 1.786 0 0 0 1.356-.655 3.063 3.063 0 0 0 .733-1.693l4.145-30.559a2.472 2.472 0 0 0 -.274-1.692 1.318 1.318 0 0 0 -1.178-.655 1.844 1.844 0 0 0 -1.374.655 2.993 2.993 0 0 0 -.75 1.692l-3.349 24.691-11.588-26.18a1.774 1.774 0 0 0 -.542-.61 1.243 1.243 0 0 0 -.73-.248 1.79 1.79 0 0 0 -1.357.655 3.066 3.066 0 0 0 -.733 1.692l-4.145 30.559a2.467 2.467 0 0 0 .274 1.693 1.316 1.316 0 0 0 1.179.655zm47.773-3.3-5.671-30.379a1.511 1.511 0 0 0 -1.487-1.58 2.211 2.211 0 0 0 -1.916 1.58l-13.869 30.29a4.036 4.036 0 0 0 -.314 1.038 2.507 2.507 0 0 0 .28 1.648 1.287 1.287 0 0 0 1.172.7 1.678 1.678 0 0 0 1.024-.384 2.937 2.937 0 0 0 .839-1.061l2.836-6.319h12.465l1.087 6.319a1.805 1.805 0 0 0 .534 1.061 1.346 1.346 0 0 0 .937.384 1.828 1.828 0 0 0 1.377-.677 2.953 2.953 0 0 0 .741-1.625 3.445 3.445 0 0 0 -.039-.993zm-8.111-24.421 2.786 16.07h-10.039zm13.563 27.721h14.375a1.825 1.825 0 0 0 1.376-.677 3.03 3.03 0 0 0 .748-1.671 2.425 2.425 0 0 0 -.3-1.67 1.34 1.34 0 0 0 -1.192-.677h-12.564l3.826-28.212a2.425 2.425 0 0 0 -.3-1.67 1.34 1.34 0 0 0 -1.192-.677 1.8 1.8 0 0 0 -1.342.677 3.025 3.025 0 0 0 -.747 1.67l-4.145 30.559a2.494 2.494 0 0 0 .276 1.671 1.3 1.3 0 0 0 1.176.677zm60.824-35.254a2.082 2.082 0 0 0 -1.769 1.264l-13.678 26.858-6.669-26.857a1.479 1.479 0 0 0 -1.426-1.264 1.825 1.825 0 0 0 -1.377.677 3.025 3.025 0 0 0 -.747 1.67l-4.145 30.559a2.426 2.426 0 0 0 .294 1.671 1.343 1.343 0 0 0 1.193.677 1.825 1.825 0 0 0 1.376-.677 3.03 3.03 0 0 0 .748-1.671l2.988-22.027 5.365 21.621a1.5 1.5 0 0 0 1.478 1.4 2.1 2.1 0 0 0 1.721-1.174l11.424-22.255-3.043 22.434a2.42 2.42 0 0 0 .294 1.671 1.341 1.341 0 0 0 1.193.677 1.847 1.847 0 0 0 1.359-.677 2.974 2.974 0 0 0 .765-1.671l4.145-30.559a2.431 2.431 0 0 0 -.3-1.67 1.342 1.342 0 0 0 -1.192-.677zm16.441 35.705a13.149 13.149 0 0 0 7.465-2.3 18.343 18.343 0 0 0 5.75-6.432 26.173 26.173 0 0 0 3.025-9.367 22.478 22.478 0 0 0 -.487-9.343 12.491 12.491 0 0 0 -4.026-6.41 10.467 10.467 0 0 0 -6.823-2.3 13.228 13.228 0 0 0 -7.482 2.3 18.134 18.134 0 0 0 -5.748 6.41 26.214 26.214 0 0 0 -3 9.343 22.851 22.851 0 0 0 .466 9.367 12.386 12.386 0 0 0 4.006 6.432 10.517 10.517 0 0 0 6.858 2.3zm.575-4.243a7.479 7.479 0 0 1 -5.064-1.828 9.966 9.966 0 0 1 -3-4.988 17.255 17.255 0 0 1 -.365-7.042 19.949 19.949 0 0 1 2.275-7.041 14.447 14.447 0 0 1 4.337-4.966 9.561 9.561 0 0 1 5.575-1.805 7.533 7.533 0 0 1 5.084 1.805 9.888 9.888 0 0 1 2.99 4.966 17.253 17.253 0 0 1 .364 7.041 19.94 19.94 0 0 1 -2.274 7.042 14.559 14.559 0 0 1 -4.357 4.988 9.516 9.516 0 0 1 -5.561 1.828zm30.187 4.514a11.528 11.528 0 0 0 5.929-1.6 13.161 13.161 0 0 0 4.53-4.468 16.134 16.134 0 0 0 2.285-6.478l2.859-21.08a2.478 2.478 0 0 0 -.274-1.692 1.319 1.319 0 0 0 -1.178-.655 1.841 1.841 0 0 0 -1.374.655 2.993 2.993 0 0 0 -.75 1.692l-2.859 21.08a10.465 10.465 0 0 1 -1.537 4.288 8.814 8.814 0 0 1 -3.058 2.957 7.888 7.888 0 0 1 -4 1.061 6.867 6.867 0 0 1 -3.866-1.061 6.046 6.046 0 0 1 -2.342-2.957 8.564 8.564 0 0 1 -.408-4.288l2.859-21.08a2.467 2.467 0 0 0 -.274-1.692 1.347 1.347 0 0 0 -1.213-.655 1.84 1.84 0 0 0 -1.373.655 3 3 0 0 0 -.751 1.692l-2.859 21.08a13.345 13.345 0 0 0 .559 6.5 8.973 8.973 0 0 0 3.425 4.446 9.875 9.875 0 0 0 5.668 1.6zm19.855-.722a1.808 1.808 0 0 0 1.394-.677 3.1 3.1 0 0 0 .73-1.671l3.343-24.645 11.588 26.18a1.124 1.124 0 0 0 .525.61 1.555 1.555 0 0 0 .753.2 1.786 1.786 0 0 0 1.356-.655 3.071 3.071 0 0 0 .734-1.693l4.145-30.559a2.478 2.478 0 0 0 -.274-1.692 1.32 1.32 0 0 0 -1.179-.655 1.84 1.84 0 0 0 -1.373.655 3 3 0 0 0 -.751 1.692l-3.349 24.691-11.588-26.18a1.774 1.774 0 0 0 -.542-.61 1.243 1.243 0 0 0 -.73-.248 1.788 1.788 0 0 0 -1.356.655 3.059 3.059 0 0 0 -.733 1.692l-4.145 30.559a2.462 2.462 0 0 0 .273 1.693 1.318 1.318 0 0 0 1.179.655zm49.118-35.254h-18.572a1.681 1.681 0 0 0 -1.281.61 2.819 2.819 0 0 0 -.68 1.557 2.27 2.27 0 0 0 .257 1.557 1.244 1.244 0 0 0 1.116.61h7.5l-3.876 28.572a2.431 2.431 0 0 0 .294 1.671 1.343 1.343 0 0 0 1.194.677 1.828 1.828 0 0 0 1.376-.677 3.044 3.044 0 0 0 .748-1.671l3.875-28.572h7.465a1.684 1.684 0 0 0 1.281-.61 2.826 2.826 0 0 0 .68-1.557 2.269 2.269 0 0 0 -.258-1.557 1.241 1.241 0 0 0 -1.115-.61zm18.825 31.959-5.671-30.379a1.51 1.51 0 0 0 -1.487-1.58 2.208 2.208 0 0 0 -1.915 1.58l-13.862 30.285a4.076 4.076 0 0 0 -.314 1.038 2.507 2.507 0 0 0 .28 1.648 1.287 1.287 0 0 0 1.172.7 1.681 1.681 0 0 0 1.025-.384 2.945 2.945 0 0 0 .838-1.061l2.836-6.319h12.465l1.088 6.319a1.8 1.8 0 0 0 .533 1.061 1.348 1.348 0 0 0 .937.384 1.828 1.828 0 0 0 1.377-.677 2.953 2.953 0 0 0 .741-1.625 3.445 3.445 0 0 0 -.039-.993zm-8.111-24.421 2.786 16.07h-10.031zm13.6 27.716a1.808 1.808 0 0 0 1.394-.677 3.1 3.1 0 0 0 .73-1.671l4.145-30.559a2.478 2.478 0 0 0 -.274-1.692 1.349 1.349 0 0 0 -1.213-.655 1.842 1.842 0 0 0 -1.374.655 2.993 2.993 0 0 0 -.75 1.692l-4.145 30.559a2.426 2.426 0 0 0 .294 1.671 1.343 1.343 0 0 0 1.193.677zm10.521 0a1.809 1.809 0 0 0 1.394-.677 3.1 3.1 0 0 0 .73-1.671l3.343-24.645 11.587 26.18a1.125 1.125 0 0 0 .526.61 1.555 1.555 0 0 0 .753.2 1.786 1.786 0 0 0 1.356-.655 3.063 3.063 0 0 0 .733-1.693l4.145-30.559a2.467 2.467 0 0 0 -.274-1.692 1.318 1.318 0 0 0 -1.178-.655 1.844 1.844 0 0 0 -1.374.655 2.993 2.993 0 0 0 -.75 1.692l-3.349 24.691-11.577-26.177a1.774 1.774 0 0 0 -.542-.61 1.243 1.243 0 0 0 -.73-.248 1.79 1.79 0 0 0 -1.357.655 3.066 3.066 0 0 0 -.733 1.692l-4.145 30.559a2.467 2.467 0 0 0 .274 1.693 1.317 1.317 0 0 0 1.179.655zm39.028 0h9.037a9.018 9.018 0 0 0 4.785-1.354 10.916 10.916 0 0 0 3.674-3.792 14.368 14.368 0 0 0 1.875-5.507 9.537 9.537 0 0 0 -.607-5.507 5.4 5.4 0 0 0 -3.324-2.889 9.419 9.419 0 0 0 4.362-6.816 10.487 10.487 0 0 0 -.365-4.852 6.681 6.681 0 0 0 -2.377-3.341 6.567 6.567 0 0 0 -3.97-1.2h-8.3a1.841 1.841 0 0 0 -1.374.655 2.993 2.993 0 0 0 -.75 1.692l-4.145 30.559a2.426 2.426 0 0 0 .294 1.671 1.341 1.341 0 0 0 1.193.677zm4.622-20.764 1.377-10.156h6.493a3.789 3.789 0 0 1 3.107 1.286 4.756 4.756 0 0 1 .721 3.769 6.1 6.1 0 0 1 -1.747 3.792 4.893 4.893 0 0 1 -3.458 1.309zm-2.229 16.43 1.641-12.1h7.222a4.647 4.647 0 0 1 3.739 1.49 5.27 5.27 0 0 1 .894 4.288 7.679 7.679 0 0 1 -2.127 4.672 5.77 5.77 0 0 1 -4.147 1.647h-7.222zm22.711 4.334a1.808 1.808 0 0 0 1.394-.677 3.1 3.1 0 0 0 .73-1.671l4.145-30.559a2.478 2.478 0 0 0 -.274-1.692 1.349 1.349 0 0 0 -1.213-.655 1.844 1.844 0 0 0 -1.374.655 2.993 2.993 0 0 0 -.75 1.692l-4.145 30.559a2.426 2.426 0 0 0 .294 1.671 1.343 1.343 0 0 0 1.193.677zm20.842.451a13.246 13.246 0 0 0 9.039-3.927 3.048 3.048 0 0 0 .783-1.67 2.506 2.506 0 0 0 -.217-1.6 1.11 1.11 0 0 0 -1.012-.609 2 2 0 0 0 -1.219.542q-3.461 2.979-6.793 2.979a6.787 6.787 0 0 1 -4.731-1.851 10.558 10.558 0 0 1 -2.932-5.01 16.812 16.812 0 0 1 -.394-6.952 19.535 19.535 0 0 1 2.277-6.928 15.335 15.335 0 0 1 4.294-5.033 8.743 8.743 0 0 1 5.234-1.851 7.041 7.041 0 0 1 3.412.7 8.32 8.32 0 0 1 2.468 2.279 1.423 1.423 0 0 0 1.136.587 1.744 1.744 0 0 0 1.243-.587 2.533 2.533 0 0 0 .705-1.49 3.238 3.238 0 0 0 0-1.015 1.771 1.771 0 0 0 -.442-.835 11.046 11.046 0 0 0 -3.5-2.979 9.863 9.863 0 0 0 -4.443-.9 12.11 12.11 0 0 0 -7.117 2.41 19.778 19.778 0 0 0 -5.732 6.545 25.229 25.229 0 0 0 -3 9.1 22 22 0 0 0 .528 9.164 13.362 13.362 0 0 0 3.956 6.545 9.528 9.528 0 0 0 6.464 2.392zm37.759-35.705a2.052 2.052 0 0 0 -1.75 1.129l-10.56 16.927-5.854-16.747a2.935 2.935 0 0 0 -.559-.993 1.142 1.142 0 0 0 -.86-.316 1.878 1.878 0 0 0 -1.353.632 2.7 2.7 0 0 0 -.753 1.58 3.016 3.016 0 0 0 .186 1.444l6.735 18.733-1.426 10.517a2.426 2.426 0 0 0 .294 1.671 1.314 1.314 0 0 0 1.158.677 1.825 1.825 0 0 0 1.376-.677 3.03 3.03 0 0 0 .748-1.671l1.426-10.517 11.882-18.733a3.808 3.808 0 0 0 .549-1.489 2.443 2.443 0 0 0 -.226-1.535 1.1 1.1 0 0 0 -1.008-.632zm10.748 35.705a13.246 13.246 0 0 0 9.039-3.927 3.048 3.048 0 0 0 .783-1.67 2.506 2.506 0 0 0 -.217-1.6 1.11 1.11 0 0 0 -1.012-.609 2 2 0 0 0 -1.219.542q-3.46 2.979-6.793 2.979a6.785 6.785 0 0 1 -4.731-1.851 10.558 10.558 0 0 1 -2.932-5.01 16.812 16.812 0 0 1 -.394-6.952 19.554 19.554 0 0 1 2.276-6.928 15.349 15.349 0 0 1 4.295-5.033 8.742 8.742 0 0 1 5.233-1.851 7.038 7.038 0 0 1 3.412.7 8.311 8.311 0 0 1 2.469 2.279 1.423 1.423 0 0 0 1.136.587 1.741 1.741 0 0 0 1.242-.587 2.528 2.528 0 0 0 .706-1.49 3.238 3.238 0 0 0 0-1.015 1.771 1.771 0 0 0 -.442-.835 11.046 11.046 0 0 0 -3.5-2.979 9.863 9.863 0 0 0 -4.443-.9 12.11 12.11 0 0 0 -7.116 2.415 19.778 19.778 0 0 0 -5.732 6.545 25.229 25.229 0 0 0 -3 9.1 22 22 0 0 0 .528 9.164 13.362 13.362 0 0 0 3.956 6.545 9.528 9.528 0 0 0 6.464 2.392zm16.658-.451h14.375a1.825 1.825 0 0 0 1.376-.677 3.03 3.03 0 0 0 .748-1.671 2.431 2.431 0 0 0 -.295-1.67 1.341 1.341 0 0 0 -1.192-.677h-12.57l3.827-28.212a2.431 2.431 0 0 0 -.295-1.67 1.341 1.341 0 0 0 -1.192-.677 1.8 1.8 0 0 0 -1.343.677 3.039 3.039 0 0 0 -.747 1.67l-4.145 30.559a2.494 2.494 0 0 0 .277 1.671 1.3 1.3 0 0 0 1.176.677zm22.326 0a1.808 1.808 0 0 0 1.394-.677 3.1 3.1 0 0 0 .73-1.671l4.145-30.559a2.478 2.478 0 0 0 -.274-1.692 1.349 1.349 0 0 0 -1.213-.655 1.844 1.844 0 0 0 -1.374.655 2.993 2.993 0 0 0 -.75 1.692l-4.145 30.559a2.426 2.426 0 0 0 .294 1.671 1.343 1.343 0 0 0 1.193.677zm10.521 0a1.808 1.808 0 0 0 1.394-.677 3.1 3.1 0 0 0 .73-1.671l3.343-24.645 11.588 26.18a1.124 1.124 0 0 0 .525.61 1.555 1.555 0 0 0 .753.2 1.786 1.786 0 0 0 1.356-.655 3.071 3.071 0 0 0 .734-1.693l4.145-30.559a2.478 2.478 0 0 0 -.274-1.692 1.32 1.32 0 0 0 -1.179-.655 1.84 1.84 0 0 0 -1.373.655 3 3 0 0 0 -.751 1.692l-3.349 24.691-11.588-26.18a1.774 1.774 0 0 0 -.542-.61 1.243 1.243 0 0 0 -.73-.248 1.788 1.788 0 0 0 -1.356.655 3.059 3.059 0 0 0 -.733 1.692l-4.145 30.559a2.462 2.462 0 0 0 .273 1.693 1.318 1.318 0 0 0 1.179.655zm48.979-18.282h-6.494a1.881 1.881 0 0 0 -1.381.587 2.534 2.534 0 0 0 -.706 1.49 2 2 0 0 0 .3 1.489 1.413 1.413 0 0 0 1.222.587h4.792l-1.088 8.04a9.775 9.775 0 0 1 -5.9 2.257 6.788 6.788 0 0 1 -4.732-1.851 10.557 10.557 0 0 1 -2.931-5.01 16.812 16.812 0 0 1 -.394-6.952 19.514 19.514 0 0 1 2.276-6.928 15.346 15.346 0 0 1 4.294-5.033 8.745 8.745 0 0 1 5.234-1.851 7.041 7.041 0 0 1 3.412.7 8.335 8.335 0 0 1 2.469 2.279 1.391 1.391 0 0 0 1.1.587 1.775 1.775 0 0 0 1.278-.587 2.527 2.527 0 0 0 .705-1.49 3.178 3.178 0 0 0 0-1.015 1.753 1.753 0 0 0 -.442-.835 11.043 11.043 0 0 0 -3.5-2.979 9.863 9.863 0 0 0 -4.443-.9 12.106 12.106 0 0 0 -7.116 2.415 19.778 19.778 0 0 0 -5.732 6.545 25.231 25.231 0 0 0 -3 9.1 22 22 0 0 0 .528 9.164 13.369 13.369 0 0 0 3.956 6.545 9.532 9.532 0 0 0 6.464 2.392 13 13 0 0 0 9.04-3.927 2.678 2.678 0 0 0 .782-1.67l1.463-10.788a2.469 2.469 0 0 0 -.274-1.693 1.32 1.32 0 0 0 -1.178-.655zm35.953 14.987-5.671-30.379a1.511 1.511 0 0 0 -1.487-1.58 2.211 2.211 0 0 0 -1.916 1.58l-13.865 30.285a4.083 4.083 0 0 0 -.315 1.038 2.519 2.519 0 0 0 .28 1.648 1.288 1.288 0 0 0 1.173.7 1.678 1.678 0 0 0 1.024-.384 2.935 2.935 0 0 0 .838-1.061l2.837-6.319h12.465l1.087 6.319a1.805 1.805 0 0 0 .534 1.061 1.346 1.346 0 0 0 .937.384 1.825 1.825 0 0 0 1.376-.677 2.955 2.955 0 0 0 .742-1.625 3.518 3.518 0 0 0 -.039-.993zm-8.111-24.421 2.786 16.07h-10.035zm20.346 28.167a11.34 11.34 0 0 0 4.965-1.151 10.641 10.641 0 0 0 4.065-3.476 12.2 12.2 0 0 0 2.111-5.574q.6-4.469-1.316-7.2a8.262 8.262 0 0 0 -6.013-3.273q-3.683-.5-4.927-2.076a5 5 0 0 1 -.925-3.927 5.461 5.461 0 0 1 2.152-3.863 7.309 7.309 0 0 1 4.451-1.332 5.142 5.142 0 0 1 3.415 1.061 6.586 6.586 0 0 1 1.925 3.092 1.8 1.8 0 0 0 .569.925 1.4 1.4 0 0 0 .926.339 1.546 1.546 0 0 0 .946-.316 2.448 2.448 0 0 0 .915-1.625 3.492 3.492 0 0 0 -.2-1.625 10.29 10.29 0 0 0 -2.861-4.514 7.129 7.129 0 0 0 -4.82-1.58 11.845 11.845 0 0 0 -5.1 1.106 10.161 10.161 0 0 0 -3.907 3.2 10.63 10.63 0 0 0 -1.943 4.988 8.838 8.838 0 0 0 1.537 6.838 9 9 0 0 0 6.327 3.273 5.466 5.466 0 0 1 5.281 6.635 6.216 6.216 0 0 1 -2.385 4.266 7.354 7.354 0 0 1 -4.621 1.557 6.444 6.444 0 0 1 -3.9-1.219 4.954 4.954 0 0 1 -2.061-2.979 2.136 2.136 0 0 0 -.591-1.151 1.407 1.407 0 0 0 -1-.429 1.036 1.036 0 0 0 -.354.045 2.271 2.271 0 0 0 -1.68 1.9 2.916 2.916 0 0 0 .051.9 8.426 8.426 0 0 0 3.1 5.191 9.12 9.12 0 0 0 5.86 1.986zm23.889 0a11.34 11.34 0 0 0 4.965-1.151 10.641 10.641 0 0 0 4.065-3.476 12.2 12.2 0 0 0 2.111-5.574q.6-4.469-1.316-7.2a8.262 8.262 0 0 0 -6.014-3.273q-3.683-.5-4.927-2.076a5 5 0 0 1 -.925-3.927 5.461 5.461 0 0 1 2.155-3.863 7.309 7.309 0 0 1 4.451-1.332 5.145 5.145 0 0 1 3.416 1.061 6.593 6.593 0 0 1 1.924 3.092 1.8 1.8 0 0 0 .569.925 1.4 1.4 0 0 0 .926.339 1.546 1.546 0 0 0 .946-.316 2.444 2.444 0 0 0 .915-1.625 3.492 3.492 0 0 0 -.2-1.625 10.29 10.29 0 0 0 -2.861-4.514 7.125 7.125 0 0 0 -4.82-1.58 11.845 11.845 0 0 0 -5.1 1.106 10.161 10.161 0 0 0 -3.907 3.2 10.63 10.63 0 0 0 -1.943 4.988 8.838 8.838 0 0 0 1.537 6.838 9 9 0 0 0 6.327 3.273 5.466 5.466 0 0 1 5.281 6.635 6.216 6.216 0 0 1 -2.385 4.266 7.354 7.354 0 0 1 -4.621 1.557 6.444 6.444 0 0 1 -3.9-1.219 4.954 4.954 0 0 1 -2.061-2.979 2.141 2.141 0 0 0 -.59-1.151 1.411 1.411 0 0 0 -1-.429 1.036 1.036 0 0 0 -.354.045 2.271 2.271 0 0 0 -1.68 1.9 2.916 2.916 0 0 0 .051.9 8.426 8.426 0 0 0 3.1 5.191 9.12 9.12 0 0 0 5.86 1.986zm27.812 0a13.147 13.147 0 0 0 7.465-2.3 18.335 18.335 0 0 0 5.751-6.432 26.153 26.153 0 0 0 3.024-9.367 22.463 22.463 0 0 0 -.486-9.343 12.5 12.5 0 0 0 -4.026-6.41 10.467 10.467 0 0 0 -6.823-2.3 13.229 13.229 0 0 0 -7.483 2.3 18.153 18.153 0 0 0 -5.748 6.41 26.194 26.194 0 0 0 -3 9.343 22.852 22.852 0 0 0 .465 9.367 12.386 12.386 0 0 0 4.006 6.432 10.519 10.519 0 0 0 6.858 2.3zm.576-4.243a7.477 7.477 0 0 1 -5.064-1.828 9.966 9.966 0 0 1 -3-4.988 17.238 17.238 0 0 1 -.365-7.042 19.929 19.929 0 0 1 2.275-7.041 14.435 14.435 0 0 1 4.336-4.966 9.563 9.563 0 0 1 5.575-1.805 7.534 7.534 0 0 1 5.085 1.805 9.9 9.9 0 0 1 2.99 4.966 17.271 17.271 0 0 1 .364 7.041 19.94 19.94 0 0 1 -2.274 7.042 14.57 14.57 0 0 1 -4.357 4.988 9.521 9.521 0 0 1 -5.561 1.828zm30.328 4.243a13.25 13.25 0 0 0 9.04-3.927 3.053 3.053 0 0 0 .782-1.67 2.506 2.506 0 0 0 -.217-1.6 1.109 1.109 0 0 0 -1.011-.609 2.006 2.006 0 0 0 -1.22.542q-3.459 2.979-6.793 2.979a6.787 6.787 0 0 1 -4.731-1.851 10.549 10.549 0 0 1 -2.931-5.01 16.794 16.794 0 0 1 -.395-6.952 19.535 19.535 0 0 1 2.277-6.928 15.346 15.346 0 0 1 4.294-5.033 8.743 8.743 0 0 1 5.234-1.851 7.041 7.041 0 0 1 3.412.7 8.32 8.32 0 0 1 2.466 2.276 1.423 1.423 0 0 0 1.136.587 1.744 1.744 0 0 0 1.243-.587 2.527 2.527 0 0 0 .705-1.49 3.208 3.208 0 0 0 0-1.015 1.753 1.753 0 0 0 -.442-.835 11.043 11.043 0 0 0 -3.5-2.979 9.871 9.871 0 0 0 -4.444-.9 12.11 12.11 0 0 0 -7.116 2.415 19.764 19.764 0 0 0 -5.731 6.545 25.212 25.212 0 0 0 -3 9.1 22 22 0 0 0 .528 9.164 13.362 13.362 0 0 0 3.956 6.545 9.53 9.53 0 0 0 6.464 2.392zm16.693-.451a1.809 1.809 0 0 0 1.394-.677 3.1 3.1 0 0 0 .73-1.671l4.145-30.559a2.478 2.478 0 0 0 -.274-1.692 1.349 1.349 0 0 0 -1.213-.655 1.841 1.841 0 0 0 -1.374.655 2.993 2.993 0 0 0 -.75 1.692l-4.144 30.559a2.426 2.426 0 0 0 .294 1.671 1.341 1.341 0 0 0 1.193.677zm29.475-3.3-5.672-30.379a1.51 1.51 0 0 0 -1.487-1.58 2.209 2.209 0 0 0 -1.915 1.58l-13.866 30.29a4.076 4.076 0 0 0 -.314 1.038 2.513 2.513 0 0 0 .28 1.648 1.287 1.287 0 0 0 1.172.7 1.678 1.678 0 0 0 1.025-.384 2.945 2.945 0 0 0 .838-1.061l2.836-6.319h12.466l1.087 6.319a1.8 1.8 0 0 0 .533 1.061 1.349 1.349 0 0 0 .938.384 1.826 1.826 0 0 0 1.376-.677 2.955 2.955 0 0 0 .742-1.625 3.518 3.518 0 0 0 -.039-.993zm-8.112-24.421 2.786 16.07h-10.035zm31.093-7.538h-18.577a1.678 1.678 0 0 0 -1.28.61 2.812 2.812 0 0 0 -.68 1.557 2.27 2.27 0 0 0 .257 1.557 1.243 1.243 0 0 0 1.115.61h7.5l-3.877 28.577a2.426 2.426 0 0 0 .294 1.671 1.343 1.343 0 0 0 1.193.677 1.828 1.828 0 0 0 1.377-.677 3.035 3.035 0 0 0 .747-1.671l3.875-28.572h7.466a1.682 1.682 0 0 0 1.28-.61 2.812 2.812 0 0 0 .68-1.557 2.27 2.27 0 0 0 -.257-1.557 1.241 1.241 0 0 0 -1.115-.61zm2.683 35.254a1.808 1.808 0 0 0 1.394-.677 3.1 3.1 0 0 0 .73-1.671l4.145-30.559a2.478 2.478 0 0 0 -.274-1.692 1.349 1.349 0 0 0 -1.213-.655 1.844 1.844 0 0 0 -1.374.655 2.993 2.993 0 0 0 -.75 1.692l-4.145 30.559a2.426 2.426 0 0 0 .294 1.671 1.343 1.343 0 0 0 1.193.677zm21.224.451a13.144 13.144 0 0 0 7.464-2.3 18.335 18.335 0 0 0 5.751-6.432 26.153 26.153 0 0 0 3.024-9.367 22.463 22.463 0 0 0 -.486-9.343 12.5 12.5 0 0 0 -4.026-6.41 10.467 10.467 0 0 0 -6.823-2.3 13.231 13.231 0 0 0 -7.483 2.3 18.153 18.153 0 0 0 -5.748 6.41 26.194 26.194 0 0 0 -3 9.343 22.852 22.852 0 0 0 .465 9.367 12.386 12.386 0 0 0 4.006 6.432 10.52 10.52 0 0 0 6.859 2.3zm.575-4.243a7.477 7.477 0 0 1 -5.064-1.828 9.966 9.966 0 0 1 -3-4.988 17.255 17.255 0 0 1 -.365-7.042 19.929 19.929 0 0 1 2.275-7.041 14.445 14.445 0 0 1 4.336-4.966 9.563 9.563 0 0 1 5.575-1.805 7.534 7.534 0 0 1 5.085 1.805 9.9 9.9 0 0 1 2.99 4.966 17.271 17.271 0 0 1 .364 7.041 19.94 19.94 0 0 1 -2.274 7.042 14.57 14.57 0 0 1 -4.357 4.988 9.521 9.521 0 0 1 -5.561 1.828zm20.7 3.792a1.806 1.806 0 0 0 1.394-.677 3.1 3.1 0 0 0 .73-1.671l3.343-24.645 11.588 26.18a1.117 1.117 0 0 0 .53.61 1.51 1.51 0 0 0 .75.2 1.765 1.765 0 0 0 1.35-.655 3.076 3.076 0 0 0 .74-1.693l4.14-30.559a2.418 2.418 0 0 0 -.27-1.692 1.324 1.324 0 0 0 -1.18-.655 1.823 1.823 0 0 0 -1.37.655 2.954 2.954 0 0 0 -.75 1.692l-3.35 24.691-11.591-26.18a1.764 1.764 0 0 0 -.542-.61 1.24 1.24 0 0 0 -.73-.248 1.79 1.79 0 0 0 -1.356.655 3.059 3.059 0 0 0 -.733 1.692l-4.145 30.559a2.473 2.473 0 0 0 .273 1.693 1.318 1.318 0 0 0 1.179.655z"/><path d="m920 0a120 120 0 1 1 -120 120 120 120 0 0 1 120-120zm0 20a100 100 0 1 1 -100 100 100 100 0 0 1 100-100z"/><path d="m920 27a93 93 0 1 1 -93 93 93 93 0 0 1 93-93zm-1 48c-2.565 5.049-39.655 83.479-44 92-3.581 7.023 1.149 7 3 7h14c3.092 0 4.806-1.32 6-4 1.556-3.493 6.769-15 8-15 .994 0 16.666-.031 21 0 3.394.024 1.126 18.8 7 19 3.637.126 9.823 0 14 0s6.582-1.488 6-6-11.535-89.482-12-94c-.412-4-2.524-7-5-7h-10c-4.922 0-5.46 3-8 8zm-4 59c-2.409 0 7.392-16.831 8-18 .735-1.413 2-.439 2 5v8c0 2.052.181 5-1 5z"/><path d="m455.958 217.04a120 120 0 1 1 .048-192.04c35.913 25.277 82.17 28.49 127.044-.042a120 120 0 1 1 -5.072 188.069c-38.111-26.537-86.933-23.112-122.02 4.013zm-71.958-196.04a100 100 0 1 1 -100 100 100 100 0 0 1 100-100zm271 0a100 100 0 1 1 -100 100 100 100 0 0 1 100-100z"/><path d="m655 28a93 93 0 1 1 -93 93 93 93 0 0 1 93-93zm6 146c16.6 0 32.194-17.512 34-37 .993-10.717-6.4-14.456-6-16.1s2.779-2.861 5-4.9 8-9.633 8-24c0-14.287-15.747-25-25-25h-36.341c-6.583 0-6.439 3.4-7.066 7s-15.074 86.1-16.151 92c-.863 4.728-.67 7.955 2.019 8 1.649.027 15.234 0 17.16 0zm-9-74c1.932-11.146 1.375-10.855 8-11s13.193-.838 17 2c1.393 1.038 2.222 3.8 2 7s-3.909 12-12 12h-16c-1.132 0-.5-1.351 1-10zm-7.385 42.088c1.957-11.046 1.392-10.759 8.1-10.9s13.366-.831 17.223 1.982c1.411 1.029 2.251 3.765 2.026 6.938s-3.956 11.892-12.153 11.892h-16.211c-1.145 0-.5-1.339 1.015-9.912z"/><path d="m384 28a93 93 0 1 1 -93 93 93 93 0 0 1 93-93zm-19.893 95.039c-4.128 23.179-8.181 45.822-8.457 46.961-.53 2.189-1.1 4-3.029 4s-15.511.027-17.16 0c-2.689-.045-2.882-3.272-2.019-8 1.077-5.9 15.524-88.4 16.151-92s.483-7 7.066-7h11.1c2.4 0 4.329 1.048 5.048 7s6.509 35.941 8.189 45c1.391 7.5 3.395 8.293 5 5 .831-1.7 27.379-48.77 27.593-50 .627-3.6.483-7 7.066-7h11.1c2.4 0 6.088 1.1 5.048 7-2.154 12.223-16.631 93.811-17.161 96s-1.1 4-3.029 4-15.511.027-17.16 0c-2.689-.045-2.882-3.272-2.019-8 .466-2.553 3.434-19.445 6.7-38.082-1.489 1.27-3.859 5.064-5.146 8.082-.99 2.321-11.184 20.434-12 22s-1.259 4-8 4-8.437-.6-10-10-3.875-32.684-4.881-28.961z"/><path d="m120 1a120 120 0 1 1 -120 120 120 120 0 0 1 120-120zm0 20a100 100 0 1 1 -100 100 100 100 0 0 1 100-100z"/><path d="m120 28a93 93 0 1 1 -93 93 93 93 0 0 1 93-93zm5 39h11c2.372 0 6.03 1.1 5 7-2.133 12.223-16.475 93.811-17 96s-1.092 4-3 4-15.366.027-17 0c-2.663-.045-2.855-3.272-2-8 1.067-5.9 15.379-88.4 16-92s.479-7 7-7z"/></g></svg>