<svg xmlns="http://www.w3.org/2000/svg" width="500" height="445"  xmlns:v="https://vecta.io/nano"><path d="M228.982 65.278a34.5 34.5 0 1 1 42 .028c2.808 0 5.064 3.186 5.064 7L300.213 149a10 10 0 0 1-10 10h-80.426a10 10 0 0 1-10-10l24.168-76.7c0-3.812 2.259-6.912 5.07-7 .039 0-.017 0-.043-.022zm192 199a34.5 34.5 0 1 1 42 .028c2.808 0 5.064 3.187 5.064 7L492.213 348a10 10 0 0 1-10 10h-80.426a10 10 0 0 1-10-10l24.168-76.7c0-3.812 2.259-6.913 5.07-7 .039.005-.017 0-.043-.022zm-384.999 0a34.5 34.5 0 1 1 42 .028c2.808 0 5.064 3.187 5.064 7L107.213 348a10 10 0 0 1-10 10H16.787a10 10 0 0 1-10-10l24.168-76.7c0-3.812 2.26-6.913 5.071-7 .038.005-.018 0-.043-.022z" fill="#fff" fill-rule="evenodd"/><path d="M123,311H88.422M69.1,210.423A196.206,196.206,0,0,1,224.974,91.583m48.129-.235A196.192,196.192,0,0,1,430.63,209.785M410.862,311H360" fill="none" stroke="#fff" stroke-width="15"/><path d="M250 219a92 92 0 1 1-92 92 92 92 0 0 1 92-92zm60.4 44.394a76.527 76.527 0 0 1 15.977 38.568.037.037 0 0 1-.036.038h-54.59c-.018 0 .006-.029.014-.037l38.589-38.589a.07.07 0 0 1 .046.02zm-51.366-28.775a76.535 76.535 0 0 1 38.566 15.974.079.079 0 0 1 .013.063l-38.573 38.576c-.013.013-.04.067-.04.059v-54.66a.047.047 0 0 1 .038-.012zm-56.657 15.987a76.53 76.53 0 0 1 38.591-15.988c.024 0 .028.012.028.03v54.572a.138.138 0 0 1 .007.059l-38.636-38.635s-.031-.011.014-.038zm-28.759 51.336a76.528 76.528 0 0 1 15.982-38.555.069.069 0 0 1 .036-.022l38.591 38.591c.009.009.047.044.011.044h-54.581a.068.068 0 0 1-.035-.058zM310.4 358.617a76.542 76.542 0 0 0 15.987-38.6c0-.013-.015-.018-.028-.018h-54.6a.028.028 0 0 0 0 .024l38.6 38.6c.012.02.011.011.041-.006zm-12.775 12.732l-38.6-38.6c-.011-.011-.023 0-.023.032v54.564c0 .01 0 .038.025.035a76.528 76.528 0 0 0 38.6-15.993c.011-.004.008-.024-.006-.038zm-56.621 16v-54.534c0-.045.012-.1-.013-.074l-38.6 38.605a.031.031 0 0 0-.009.042 76.531 76.531 0 0 0 38.586 15.992c.003-.012.032.003.032-.026zm-51.341-28.741l38.586-38.586c.008-.008.061-.027.04-.027h-54.631a.036.036 0 0 0-.039.035 76.527 76.527 0 0 0 15.974 38.57c.022.056.047.032.066.013zM250 294a17 17 0 1 1-17 17 17 17 0 0 1 17-17zm0-112a128 128 0 1 1-128 128 128 128 0 0 1 128-128zm0 18a110 110 0 1 1-110 110 110 110 0 0 1 110-110z" fill="#fff" fill-rule="evenodd"/></svg>