<svg height="512" viewBox="0 0 512 512" width="512" xmlns="http://www.w3.org/2000/svg"><g fill="#fff" fill-rule="evenodd"><path d="m388 416v63a25 25 0 0 1 -25 25h-294a25 25 0 0 1 -25-25v-390a25 25 0 0 1 25-25h67v20h-57a15 15 0 0 0 -15 15v370a15 15 0 0 0 15 15h274a15 15 0 0 0 15-15v-52a155.218 155.218 0 0 0 20-1zm-20-191v-126a15 15 0 0 0 -15-15h-56c0-3.108 0-16.723 0-20h66a25 25 0 0 1 25 25v137c-8.28-1.173-11.854-1.538-20-1z"/><path d="m83 125h66v66h-66zm14 14h38v38h-38zm-14 72h66v66h-66zm14 14h38v38h-38zm-14 62h66v66h-66zm14 14h38v38h-38zm-14 64h66v66h-66zm14 14h38v38h-38z"/><path d="m195 145h122a11 11 0 0 1 0 22h-122a11 11 0 0 1 0-22zm109.549 107h-109.549a11 11 0 0 1 0-22h122a11 11 0 0 1 9.549 5.536 142.339 142.339 0 0 0 -22 16.464zm-28.462 81h-81.087a11 11 0 0 1 0-22h81.09c-1.129 8.93-1.148 11.857-.003 22zm49.756 72.544a11.225 11.225 0 0 1 -8.843 4.456h-122a11 11 0 0 1 0-22h107.722c8.651 8.248 11.142 10.116 23.121 17.544z"/><path d="m372 224a97 97 0 1 1 -97 97 97 97 0 0 1 97-97zm0 20a77 77 0 1 1 -77 77 77 77 0 0 1 77-77z"/><path d="m345.006 372.347a8.472 8.472 0 0 0 12-.054l73.762-74.579a8.512 8.512 0 0 0 -.054-12.021l-.709-.7a8.471 8.471 0 0 0 -12 .054s-49.041 49.785-67.2 67.948c-.02.02-.054 0-.1-.033l-25.346-25.142a8.471 8.471 0 0 0 -12 .061l-.7.711a8.512 8.512 0 0 0 .061 12.021z"/><path d="m156 38h121a20 20 0 0 1 20 20v33a20 20 0 0 1 -20 20h-121a20 20 0 0 1 -20-20v-33a20 20 0 0 1 20-20zm7 15h106a12 12 0 0 1 12 12v19a12 12 0 0 1 -12 12h-106a12 12 0 0 1 -12-12v-19a12 12 0 0 1 12-12z"/><path d="m245 38a29 29 0 0 0 -58 0h12a17 17 0 0 1 34 0z"/></g></svg>