<svg height="484.75" viewBox="0 0 440.813 484.75" width="440.813" xmlns="http://www.w3.org/2000/svg"><path d="m167 254c-8.936-25.015-22.993-64.258-22.993-64.258l15.412-6.163 30.825 83.207s27.922 78.1 30.826 89.371c3.184 9.927 4.354 15.754-3.083 18.491-7.2 2.648-10.39-.7-15.413-12.327-2.142-4.959-16.214-49.862-23.526-72.831-2.676-8.403-3.048-10.49-3.048-10.49s-2.749 13.166-15 18c13.794 40.2 26.162 74.566 26.162 74.566s12.25 30.076 36.99 21.572c22.575-7.759 15.477-31.306 12.33-43.144-3.841-14.449-57.157-166.673-61.65-178.742s48.329-41.087 30.825-92.453c-18.495-54.274-55.446-66.976-78.657-67.799 19.281 46.764 26.65 66.549 26.254 67.8l-27.742 36.98-40.073-12.327-24.66-67.8s-48.244 35.033-15.412 104.781c36.777 55.1 72.255 31.155 80.145 52.39 2.756 7.417 11.107 31.458 20.809 59.6 4.667-.986 15.518-2.093 20.679 1.576z" fill="#fff" fill-rule="evenodd" transform="translate(-33.938 -11)"/><g stroke="#fff"><path d="m281.642 118.862h179.11a10 10 0 0 1 10 10v352.893a10 10 0 0 1 -10 10h-179.11a10 10 0 0 1 -10-10v-352.893a10 10 0 0 1 10-10z" fill="none" stroke-linecap="round" stroke-linejoin="round" stroke-width="8" transform="translate(-33.938 -11)"/><circle cx="334.063" cy="451" fill="none" r="17" stroke-linecap="round" stroke-linejoin="round" stroke-width="8"/><path d="m287.247 171.155h165.01v262.045h-165.01z" fill="none" stroke-linecap="round" stroke-linejoin="round" stroke-width="8" transform="translate(-33.938 -11)"/><circle cx="321.234" cy="161.781" fill="#fff" r="60.109" stroke-width="2"/><path d="m344.37 232.887s-.446 15.195-3.083 15.409-92.988-.5-107.887 0-21.578 3.081-21.578 3.081l6.165 24.654h92.475l40.073 147.925-18.5 9.245h120.222v-58.553l-21.577-83.208s1.413-6.437 9.247-3.082 9.248 3.082 9.248 3.082l3.082 3.082v-33.9s-2.323-7.978-15.412-9.246-38.975.186-46.238 0-12.2-6.111-12.33-18.49c-4.935-4.378-17.103 5.601-33.907.001z" fill="#fff" fill-rule="evenodd" stroke-linecap="round" stroke-linejoin="round" stroke-width="2" transform="translate(-33.938 -11)"/><path d="m153.254 257.541c12.817-4.969 27.938 15.784 9.248 30.817-10.806 8.692-18-13.231-21.578-27.735 4.797.122-.486 1.887 12.33-3.082z" fill="#fff" fill-rule="evenodd" stroke-linecap="round" stroke-linejoin="round" stroke-width="2" transform="translate(-33.938 -11)"/></g></svg>