<svg height="181.406" viewBox="0 0 1166.406 181.406" width="1166.406" xmlns="http://www.w3.org/2000/svg"><g transform="translate(-4.594 -5.594)"><path d="m113.7 175.226c32.555-56.906 55.13-96.82 85.158-148.795 4.263-10.186-.6-17.837-10.762-17.837-19.013 0-123.767-.005-168.445 0-7.686 0-14.471 6.957-11.23 16.9 8.211 14.413 76.479 134.028 86.098 149.732a11.489 11.489 0 0 0 19.181 0z" fill="none" stroke="#fff" stroke-linecap="round" stroke-linejoin="round" stroke-width="6"/><path d="m47.156 35.25h22.782a5 5 0 0 1 5 5v22.875a5 5 0 0 1 -5 5h-22.782a5 5 0 0 1 -5-5v-22.875a5 5 0 0 1 5-5z" fill="none" stroke="#fff" stroke-width="2"/><path d="m50.594 51.719a5.156 5.156 0 1 1 -5.156 5.156 5.156 5.156 0 0 1 5.156-5.156zm15.916-.04a5.167 5.167 0 1 1 -5.15 5.167 5.159 5.159 0 0 1 5.15-5.167z" fill="none" stroke="#fff" stroke-width="2"/><path d="m61.141 39.5a2.078 2.078 0 1 1 -2.109 2.078 2.094 2.094 0 0 1 2.109-2.078zm-.094 7.5h4.344a.64.64 0 0 1 .64.64v.594a.64.64 0 0 1 -.64.64h-4.344a.64.64 0 0 1 -.64-.64v-.594a.64.64 0 0 1 .64-.64zm-3.13 3.219h.76a.792.792 0 0 1 .792.792v6.916a.792.792 0 0 1 -.792.792h-.76a.792.792 0 0 1 -.792-.792v-6.916a.792.792 0 0 1 .792-.792zm-5.672-2.476a1.527 1.527 0 0 1 2.037-.586l4.553 2.674a1.439 1.439 0 0 1 .415 2.025 1.527 1.527 0 0 1 -2.037.586l-4.553-2.674a1.439 1.439 0 0 1 -.415-2.026zm6.655-4.374a2.2 2.2 0 0 1 .017 2.987l-3.51 3.756a1.922 1.922 0 0 1 -2.825.018 2.2 2.2 0 0 1 -.017-2.987l3.51-3.756a1.922 1.922 0 0 1 2.825-.018zm.13 1.043a.935.935 0 0 1 1.255.424l1.04 2.1a.937.937 0 1 1 -1.678.835l-1.04-2.1a.941.941 0 0 1 .423-1.259z" fill="#fff" fill-rule="evenodd"/><path d="m137.969 35.25h22.781a5 5 0 0 1 5 5v22.875a5 5 0 0 1 -5 5h-22.781a5 5 0 0 1 -5-5v-22.875a5 5 0 0 1 5-5z" fill="none" stroke="#fff" stroke-width="2"/><path d="m150.675 44.161a.886.886 0 0 1 .948.43l.565 4.26c.034.252-.337.468-.827.482a.886.886 0 0 1 -.948-.431l-.565-4.26c-.034-.251.336-.467.827-.481zm-2.1 4.745a1.4 1.4 0 0 0 -1.019 1.675l2.87 12.693a1.362 1.362 0 0 0 1.635 1.045 1.4 1.4 0 0 0 1.019-1.675l-2.87-12.693a1.362 1.362 0 0 0 -1.638-1.046zm.869-5.7c-1.058-.243-2.013-.015-2.134.509l-2.046 8.858c-.121.524.638 1.146 1.695 1.39s2.013.015 2.134-.509l2.046-8.858c.118-.528-.639-1.15-1.698-1.396zm1.92 5.192a1.091 1.091 0 0 1 .705-.958l3.7 1.058a1.713 1.713 0 0 1 -.615 2.143l-3.705-1.058a1.085 1.085 0 0 1 -.088-1.188zm-6.008-6.789c-.881-.2-1.67-.059-1.763.316l-1.568 6.342c-.092.375.547.842 1.428 1.043s1.67.059 1.763-.316l1.567-6.342c.09-.379-.549-.846-1.43-1.047zm4.725-3.105a2.125 2.125 0 1 1 -2.14 2.125 2.133 2.133 0 0 1 2.137-2.129zm7.879 6.218a.694.694 0 0 1 .578.793l-3.213 18.878a.7.7 0 0 1 -1.385-.237l3.213-18.878a.693.693 0 0 1 .804-.56zm-10.436 4.22a1.4 1.4 0 0 1 1 1.693l-3.117 12.635a1.369 1.369 0 0 1 -1.662 1.015 1.4 1.4 0 0 1 -.994-1.693l3.109-12.639a1.368 1.368 0 0 1 1.661-1.015z" fill="#fff" fill-rule="evenodd"/><path d="m92.531 114.594h22.844a5 5 0 0 1 5 5v22.906a5 5 0 0 1 -5 5h-22.844a5 5 0 0 1 -5-5v-22.906a5 5 0 0 1 5-5z" fill="none" stroke="#fff" stroke-width="2"/><g fill="#fff" fill-rule="evenodd"><path d="m105.837 127.778 7.023-7.046.468 1.879a31.173 31.173 0 0 1 3.278 2.818 1.084 1.084 0 0 1 -.937 1.879c-1.4.01-2.386-.774-2.809-.47a31.669 31.669 0 0 0 -2.809 5.168 7.262 7.262 0 0 0 -.936 3.758h-2.809s.211-.94-.469-.94-4.694-.016-5.15 0c-.586.41-.632 1.228-.936 1.409l-2.341 1.41a4.693 4.693 0 0 1 -.468-1.41c.349-.911-.728-.805-.936.47h-2.341a1.692 1.692 0 0 1 .468-1.409c.583-.294.591-2.972.468-4.228s-.906-1.131-.936.94h-1.873s-.641-4.2 1.873-4.228 12.172 0 12.172 0zm1.43 4.222h.872a.955.955 0 0 1 .955.955v9.84a.955.955 0 0 1 -.955.955h-.872a.955.955 0 0 1 -.955-.955v-9.84a.955.955 0 0 1 .955-.955zm-10.437 1.032a1.315 1.315 0 0 1 1.657.679l3.513 8.416a1.162 1.162 0 0 1 -.733 1.535 1.314 1.314 0 0 1 -1.657-.679l-3.51-8.415a1.162 1.162 0 0 1 .73-1.536zm-2.339 1.78h.709a.8.8 0 0 1 .8.8v7.331a.8.8 0 0 1 -.8.8h-.709a.8.8 0 0 1 -.8-.8v-7.331a.8.8 0 0 1 .8-.8z"/><path d="m101.019 122.594h1.181a1.269 1.269 0 0 1 1.269 1.269v4.524a1.269 1.269 0 0 1 -1.269 1.269h-1.181a1.269 1.269 0 0 1 -1.269-1.269v-4.524a1.269 1.269 0 0 1 1.269-1.269zm2.448 2.079 2.757.539a.939.939 0 0 1 -.357 1.844l-2.758-.538a.94.94 0 0 1 .358-1.845zm-1.858-6.267a1.86 1.86 0 1 1 -1.859 1.86 1.86 1.86 0 0 1 1.859-1.86z"/><path d="m126.737 50.775c-4.337-2.464-7.379-4.173-11.34-6.446a.876.876 0 0 0 -1.359.815c0 1.439-.023 10.887 0 12.75a.9.9 0 0 0 1.287.85c1.1-.621 10.215-5.789 11.412-6.517a.867.867 0 0 0 0-1.452zm-45.456-2.337h33.657v6.156h-33.657z"/><path d="m82.227 113.573c-.007-5-.029-8.5-.017-13.076a.877.877 0 0 0 -1.376-.786c-1.246.709-9.435 5.342-11.036 6.279a.9.9 0 0 0 -.1 1.543c1.08.653 10.052 6.069 11.272 6.755a.858.858 0 0 0 .807 0 .869.869 0 0 0 .45-.715zm-20.427-40.848 16.628 29.421-5.294 3.012-16.624-29.421z"/><path d="m125.673 113.644c.007-5.018.029-8.528.017-13.123a.877.877 0 0 1 1.377-.788c1.247.711 9.445 5.36 11.049 6.3a.907.907 0 0 1 .1 1.548c-1.081.656-10.063 6.091-11.285 6.779a.86.86 0 0 1 -.808-.005.874.874 0 0 1 -.45-.711zm20.445-40.992-16.646 29.524 5.3 3.023 16.647-29.524z"/><path d="m91.765 78.032v-3.932l3.085-5.3h-1.35l-1.324 2.548c-.355.7-.669 1.3-.928 1.9h-.029c-.287-.644-.56-1.205-.915-1.9l-1.3-2.548h-1.348l2.908 5.315v3.917h1.2zm4.043-9.232v9.232h1.192v-9.232zm8.028 3.918h-3.577v-2.918h3.782v-1h-4.969v9.232h5.174v-1h-3.987v-3.332h3.577v-.983zm1.954 5.315h5.119v-1h-3.931v-8.233h-1.188v9.232zm6.445-.033a19.14 19.14 0 0 0 2.157.109 5.655 5.655 0 0 0 4.068-1.329 4.889 4.889 0 0 0 1.325-3.589 4.26 4.26 0 0 0 -1.3-3.315 5.26 5.26 0 0 0 -3.727-1.151 16.964 16.964 0 0 0 -2.526.192v9.083zm1.188-8.2a6.724 6.724 0 0 1 1.392-.123c2.512 0 3.741 1.383 3.727 3.561a3.542 3.542 0 0 1 -3.918 3.918 7.468 7.468 0 0 1 -1.2-.069v-7.287zm-14.666 24.673h1.2v-8.219h2.813v-1.013h-6.812v1.014h2.8v8.219zm8.4-9.383c-2.458 0-4.274 1.918-4.274 4.849 0 2.794 1.707 4.685 4.137 4.685 2.348 0 4.273-1.685 4.273-4.863-.002-2.74-1.626-4.671-4.138-4.671zm-.055.972c1.98 0 2.935 1.918 2.935 3.753 0 2.1-1.065 3.835-2.949 3.835s-2.935-1.767-2.935-3.739c-.002-2.027.981-3.849 2.947-3.849z"/><path d="m39.235 30.091h1.717v-11.746h4.019v-1.445h-9.735v1.449h4v11.742zm7.2 0h1.7v-5.716h1.6c1.541.059 2.244.744 2.634 2.564a17.13 17.13 0 0 0 .878 3.152h1.753a21.055 21.055 0 0 1 -1.015-3.621 3.287 3.287 0 0 0 -1.931-2.662v-.06a3.463 3.463 0 0 0 2.478-3.367 3.291 3.291 0 0 0 -1.032-2.505 5.366 5.366 0 0 0 -3.8-1.077 17.63 17.63 0 0 0 -3.258.274v13.018zm1.7-11.823a6.961 6.961 0 0 1 1.678-.157c1.795.02 3.024.763 3.024 2.467 0 1.507-1.151 2.506-2.966 2.506h-1.74v-4.817zm15.685 7.673 1.4 4.15h1.815l-4.488-13.191h-2.047l-4.469 13.191h1.756l1.366-4.15h4.663zm-4.32-1.332 1.288-3.817c.254-.8.468-1.605.663-2.388h.039c.2.764.39 1.547.683 2.408l1.288 3.8h-3.961zm9.464-7.709v13.191h1.7v-13.191zm4.662 13.194h7.316v-1.432h-5.618v-11.762h-1.7v13.191zm22.181-1.781a6.775 6.775 0 0 1 -2.77.548c-3.2 0-5.053-2.075-5.053-5.3 0-3.465 2.049-5.442 5.131-5.442a6.165 6.165 0 0 1 2.653.548l.41-1.39a7.029 7.029 0 0 0 -3.122-.587 6.555 6.555 0 0 0 -6.868 6.93c0 4.326 2.79 6.675 6.5 6.675a8.4 8.4 0 0 0 3.473-.626zm7.393-11.631c-3.512 0-6.107 2.741-6.107 6.93 0 3.993 2.439 6.695 5.911 6.695 3.356 0 6.107-2.408 6.107-6.949.001-3.916-2.321-6.676-5.911-6.676zm-.078 1.39c2.828 0 4.194 2.741 4.194 5.363 0 3-1.522 5.481-4.214 5.481-2.673 0-4.195-2.525-4.195-5.344.001-2.897 1.406-5.501 4.216-5.501zm8.178-1.172v7.771c0 4.091 2.029 5.638 4.721 5.638 2.848 0 4.975-1.664 4.975-5.716v-7.693h-1.717v7.81c0 2.917-1.248 4.209-3.2 4.209-1.756 0-3.064-1.253-3.064-4.209v-7.81zm12.64 13.194h1.7v-5.719h1.6c1.541.059 2.243.744 2.633 2.564a17.216 17.216 0 0 0 .878 3.152h1.749a21.063 21.063 0 0 1 -1.014-3.621 3.286 3.286 0 0 0 -1.932-2.662v-.06a3.462 3.462 0 0 0 2.478-3.367 3.293 3.293 0 0 0 -1.032-2.505 5.365 5.365 0 0 0 -3.8-1.077 17.64 17.64 0 0 0 -3.259.274v13.018zm1.7-11.823a6.958 6.958 0 0 1 1.678-.157c1.8.02 3.024.763 3.024 2.467 0 1.507-1.151 2.506-2.966 2.506h-1.736v-4.82zm11.46 11.82h1.717v-11.746h4.019v-1.445h-9.736v1.449h4zm14.007-7.6h-5.107v-4.165h5.4v-1.426h-7.1v13.191h7.4v-1.429h-5.7v-4.762h5.112v-1.4zm2.125 6.949a6.781 6.781 0 0 0 3.356.842c3.1 0 4.6-1.762 4.6-3.8 0-1.938-1.131-3.015-3.355-3.876-1.815-.7-2.615-1.312-2.615-2.545 0-.9.683-1.977 2.478-1.977a5.222 5.222 0 0 1 2.5.626l.469-1.39a5.961 5.961 0 0 0 -2.907-.646c-2.556 0-4.254 1.527-4.254 3.582 0 1.86 1.327 2.975 3.473 3.739 1.776.685 2.478 1.39 2.478 2.623 0 1.331-1.014 2.251-2.751 2.251a6 6 0 0 1 -3.043-.861zm14.924.646v-5.614l4.41-7.576h-1.932l-1.892 3.641c-.508 1-.956 1.86-1.327 2.721h-.035c-.41-.92-.8-1.723-1.307-2.721l-1.854-3.637h-1.931l4.155 7.6v5.6h1.717z"/><path d="m218.018 112.608h19.241v-33.508h5.862c7.9.127 11.6 3.035 13.889 13.656 2.549 10.494 4.588 17.448 5.989 19.851h19.879c-1.657-3.288-4.333-14.414-7.009-24.024-2.169-7.838-5.479-13.528-11.469-15.93v-.379c7.391-2.655 15.163-10.115 15.163-20.989 0-7.839-2.8-13.782-7.9-17.828-6.116-4.8-15.036-6.7-27.779-6.7a171.948 171.948 0 0 0 -25.867 1.77v84.082zm19.241-70.933a48.86 48.86 0 0 1 8.793-.632c8.919.126 14.271 4.046 14.271 11.885 0 7.46-5.734 12.265-15.418 12.265h-7.646zm55.548-14.288v47.542c0 27.184 12.743 39.07 34.4 39.07 22.427 0 35.807-12.518 35.807-38.817v-47.794h-19.364v49.058c0 15.046-5.607 22.127-15.8 22.127-9.939 0-15.546-7.46-15.546-22.127v-49.058h-19.5zm87.02 85.22h53.646v-16.183h-34.15v-69.036h-19.5v85.22zm116.2-51.714h-31.6v-17.7h33.513v-15.8h-53.008v85.22h54.792v-15.813h-35.3v-20.227h31.6v-15.679zm13.626 47.794c4.842 2.655 14.526 5.184 24.338 5.184 23.574 0 34.66-12.138 34.66-26.426 0-12.012-7.136-19.851-22.3-25.414-11.086-4.172-15.928-6.575-15.928-12.012 0-4.425 4.078-8.219 12.488-8.219a41.087 41.087 0 0 1 17.967 4.046l4.334-15.546a52.972 52.972 0 0 0 -21.917-4.3c-20.26 0-32.495 11.123-32.495 25.664 0 12.391 9.3 20.23 23.573 25.161 10.322 3.667 14.4 6.7 14.4 12.012 0 5.563-4.714 9.23-13.634 9.23a49.857 49.857 0 0 1 -21.535-5.311z"/><path d="m641.544 54.783c-10.519 0-18.84 7.452-18.84 20.159 0 12 7.929 19.532 18.212 19.532 9.184 0 18.918-6.118 18.918-20.159 0-11.609-7.379-19.532-18.29-19.532zm-.157 5.177c8.164 0 11.382 8.158 11.382 14.59 0 8.55-4.945 14.747-11.539 14.747-6.751 0-11.539-6.275-11.539-14.59 0-7.216 3.532-14.747 11.696-14.747zm34.69 33.651v-32.711h9.185v-5.254h-9.185v-2.039c0-5.8 1.492-10.982 7.379-10.982a10.318 10.318 0 0 1 4.4.863l.942-5.334a16.026 16.026 0 0 0 -5.887-1.1 13.222 13.222 0 0 0 -9.263 3.53c-3.218 3.059-4.4 7.922-4.4 13.257v1.8h-5.338v5.259h5.338v32.71h6.829zm33.591-47.064v9.1h-5.887v5.253h5.887v20.71c0 4.471.707 7.844 2.669 9.883 1.649 1.883 4.239 2.9 7.458 2.9a16.92 16.92 0 0 0 6.122-.941l-.317-5.175a15.37 15.37 0 0 1 -4 .471c-3.846 0-5.181-2.667-5.181-7.373v-20.475h9.891v-5.254h-9.891v-10.9zm24.409 47.065h6.908v-22.9a8.36 8.36 0 0 1 .471-3.294 9.925 9.925 0 0 1 9.263-6.9c6.515 0 8.792 5.177 8.792 11.3v21.793h6.908v-22.591c0-13.1-8.164-16.237-13.267-16.237a14.224 14.224 0 0 0 -7.064 1.961 12.812 12.812 0 0 0 -4.946 4.863h-.157v-23.689h-6.908v55.693zm74.1-17.728a26.139 26.139 0 0 0 .235-3.216c0-6.981-3.3-17.884-15.7-17.884-11.069 0-17.82 9.021-17.82 20.473s6.987 19.14 18.683 19.14a30.79 30.79 0 0 0 12.638-2.353l-1.179-4.944a25 25 0 0 1 -10.519 1.961c-6.908 0-12.874-3.844-13.031-13.178h26.69zm-26.611-4.942c.549-4.785 3.611-11.217 10.6-11.217 7.771 0 9.655 6.824 9.577 11.217h-20.18z"/><path d="m867.506 113.226h19.494v-69.036h23.446v-16.185h-66.004v16.185h23.064zm53.253 0h19.241v-33.507h5.861c7.9.126 11.6 3.034 13.89 13.655 2.548 10.494 4.587 17.448 5.989 19.851h19.878c-1.657-3.288-4.333-14.415-7.008-24.024-2.167-7.839-5.48-13.529-11.469-15.931v-.379c7.391-2.655 15.164-10.115 15.164-20.989 0-7.839-2.8-13.782-7.9-17.828-6.116-4.8-15.036-6.7-27.778-6.7a171.966 171.966 0 0 0 -25.868 1.77v84.083zm19.241-70.933a48.835 48.835 0 0 1 8.792-.632c8.92.126 14.272 4.046 14.272 11.885 0 7.46-5.734 12.265-15.419 12.265h-7.645zm102.06 49.059 6.62 21.874h20.9l-26.63-85.221h-25.49l-26.247 85.221h20.137l6.11-21.874zm-21.79-14.414 5.09-18.081c1.4-4.931 2.68-11.38 3.95-16.437h.26c1.27 5.058 2.8 11.38 4.33 16.437l5.35 18.081zm60.77-48.932v85.221h19.49v-85.222h-19.49zm36.31 85.221h53.64v-16.186h-34.15v-69.036h-19.49v85.221z"/><path d="m604.981 186.83a.427.427 0 0 0 .327-.16.728.728 0 0 0 .171-.393l.972-7.195a.581.581 0 0 0 -.064-.4.316.316 0 0 0 -.285-.154.431.431 0 0 0 -.322.154.706.706 0 0 0 -.176.4l-.972 7.195a.572.572 0 0 0 .069.393.315.315 0 0 0 .28.16zm2.468 0a.424.424 0 0 0 .327-.16.728.728 0 0 0 .171-.393l.785-5.8 2.718 6.164a.265.265 0 0 0 .123.144.363.363 0 0 0 .177.048.417.417 0 0 0 .318-.155.716.716 0 0 0 .172-.4l.973-7.195a.586.586 0 0 0 -.064-.4.31.31 0 0 0 -.277-.154.43.43 0 0 0 -.322.154.7.7 0 0 0 -.176.4l-.786 5.813-2.719-6.164a.412.412 0 0 0 -.127-.143.287.287 0 0 0 -.171-.058.416.416 0 0 0 -.318.154.716.716 0 0 0 -.172.4l-.973 7.195a.581.581 0 0 0 .064.4.31.31 0 0 0 .277.155zm11.525-8.3h-4.359a.391.391 0 0 0 -.3.143.676.676 0 0 0 -.16.367.532.532 0 0 0 .061.366.29.29 0 0 0 .261.144h1.76l-.909 6.727a.572.572 0 0 0 .069.393.315.315 0 0 0 .28.16.43.43 0 0 0 .323-.16.711.711 0 0 0 .175-.393l.909-6.727h1.752a.392.392 0 0 0 .3-.144.665.665 0 0 0 .16-.366.534.534 0 0 0 -.061-.367.289.289 0 0 0 -.261-.143zm.629 8.3h3.682a.422.422 0 0 0 .321-.144.668.668 0 0 0 .165-.377.5.5 0 0 0 -.065-.361.323.323 0 0 0 -.283-.139h-3.258l.359-2.657h2.338a.427.427 0 0 0 .317-.143.641.641 0 0 0 .167-.367.51.51 0 0 0 -.068-.366.319.319 0 0 0 -.278-.144h-2.338l.349-2.582h3.258a.427.427 0 0 0 .32-.138.624.624 0 0 0 .163-.362.54.54 0 0 0 -.063-.377.314.314 0 0 0 -.282-.143h-3.682a.43.43 0 0 0 -.322.154.7.7 0 0 0 -.176.4l-.973 7.195a.572.572 0 0 0 .069.393.316.316 0 0 0 .28.16zm9.524-.851-.893-2.614a2.515 2.515 0 0 0 .918-.882 3.28 3.28 0 0 0 .474-1.339 3.145 3.145 0 0 0 -.081-1.36 1.79 1.79 0 0 0 -.616-.925 1.654 1.654 0 0 0 -1.035-.329h-1.466a.432.432 0 0 0 -.323.154.706.706 0 0 0 -.176.4l-.972 7.195a.572.572 0 0 0 .069.393.315.315 0 0 0 .28.16.424.424 0 0 0 .327-.16.728.728 0 0 0 .171-.393l.358-2.646h1.189l1 2.933a.34.34 0 0 0 .33.266.41.41 0 0 0 .317-.144.647.647 0 0 0 .158-.356.747.747 0 0 0 -.034-.351zm-2.827-3.369.413-3.06h1.043a.966.966 0 0 1 .852.446 1.615 1.615 0 0 1 .2 1.148 1.766 1.766 0 0 1 -.5 1.057 1.332 1.332 0 0 1 -.968.409zm4.146 4.22a.424.424 0 0 0 .327-.16.728.728 0 0 0 .171-.393l.785-5.8 2.718 6.164a.263.263 0 0 0 .124.144.362.362 0 0 0 .176.048.417.417 0 0 0 .318-.155.724.724 0 0 0 .173-.4l.972-7.195a.581.581 0 0 0 -.064-.4.309.309 0 0 0 -.277-.154.43.43 0 0 0 -.322.154.706.706 0 0 0 -.176.4l-.786 5.813-2.719-6.164a.412.412 0 0 0 -.127-.143.287.287 0 0 0 -.171-.058.416.416 0 0 0 -.318.154.716.716 0 0 0 -.172.4l-.973 7.195a.586.586 0 0 0 .064.4.311.311 0 0 0 .277.155zm11.208-.776-1.33-7.152a.355.355 0 0 0 -.349-.372.518.518 0 0 0 -.449.372l-3.253 7.131a.917.917 0 0 0 -.074.244.593.593 0 0 0 .066.388.3.3 0 0 0 .275.165.39.39 0 0 0 .24-.091.694.694 0 0 0 .2-.249l.662-1.49h2.925l.255 1.488a.424.424 0 0 0 .125.249.312.312 0 0 0 .22.091.43.43 0 0 0 .323-.16.7.7 0 0 0 .174-.382.836.836 0 0 0 -.01-.234zm-1.9-5.75.654 3.784h-2.354zm7.3-1.774h-4.358a.4.4 0 0 0 -.3.143.667.667 0 0 0 -.159.367.537.537 0 0 0 .06.366.292.292 0 0 0 .262.144h1.76l-.91 6.727a.572.572 0 0 0 .069.393.316.316 0 0 0 .28.16.429.429 0 0 0 .323-.16.719.719 0 0 0 .176-.393l.909-6.727h1.751a.4.4 0 0 0 .3-.144.664.664 0 0 0 .159-.366.54.54 0 0 0 -.06-.367.291.291 0 0 0 -.262-.143zm.63 8.3a.424.424 0 0 0 .327-.16.728.728 0 0 0 .171-.393l.973-7.195a.586.586 0 0 0 -.065-.4.314.314 0 0 0 -.284-.154.432.432 0 0 0 -.323.154.706.706 0 0 0 -.176.4l-.972 7.195a.572.572 0 0 0 .069.393.315.315 0 0 0 .28.16zm4.979.106a3.077 3.077 0 0 0 1.751-.542 4.3 4.3 0 0 0 1.35-1.515 6.169 6.169 0 0 0 .709-2.2 5.315 5.315 0 0 0 -.114-2.2 2.951 2.951 0 0 0 -.944-1.509 2.455 2.455 0 0 0 -1.6-.542 3.1 3.1 0 0 0 -1.756.542 4.274 4.274 0 0 0 -1.348 1.509 6.18 6.18 0 0 0 -.705 2.2 5.4 5.4 0 0 0 .109 2.2 2.913 2.913 0 0 0 .94 1.515 2.465 2.465 0 0 0 1.609.542zm.135-1a1.75 1.75 0 0 1 -1.188-.431 2.339 2.339 0 0 1 -.7-1.174 4.072 4.072 0 0 1 -.085-1.658 4.71 4.71 0 0 1 .533-1.658 3.415 3.415 0 0 1 1.018-1.169 2.24 2.24 0 0 1 1.308-.425 1.767 1.767 0 0 1 1.193.425 2.335 2.335 0 0 1 .7 1.169 4.09 4.09 0 0 1 .086 1.658 4.725 4.725 0 0 1 -.534 1.658 3.41 3.41 0 0 1 -1.022 1.174 2.228 2.228 0 0 1 -1.305.431zm4.857.893a.424.424 0 0 0 .327-.16.728.728 0 0 0 .171-.393l.785-5.8 2.718 6.164a.265.265 0 0 0 .123.144.363.363 0 0 0 .177.048.417.417 0 0 0 .318-.155.716.716 0 0 0 .172-.4l.973-7.195a.586.586 0 0 0 -.064-.4.309.309 0 0 0 -.277-.154.43.43 0 0 0 -.322.154.7.7 0 0 0 -.176.4l-.786 5.813-2.719-6.164a.412.412 0 0 0 -.127-.143.287.287 0 0 0 -.171-.058.416.416 0 0 0 -.318.154.716.716 0 0 0 -.172.4l-.973 7.195a.581.581 0 0 0 .064.4.31.31 0 0 0 .277.155zm11.208-.776-1.33-7.152a.355.355 0 0 0 -.349-.372.519.519 0 0 0 -.45.372l-3.253 7.131a.949.949 0 0 0 -.073.244.593.593 0 0 0 .065.388.3.3 0 0 0 .275.165.39.39 0 0 0 .241-.091.692.692 0 0 0 .2-.249l.654-1.489h2.924l.256 1.488a.418.418 0 0 0 .125.249.312.312 0 0 0 .22.091.43.43 0 0 0 .323-.16.709.709 0 0 0 .174-.382.836.836 0 0 0 -.01-.234zm-1.9-5.75.654 3.784h-2.354zm3.183 6.526h3.373a.43.43 0 0 0 .323-.16.711.711 0 0 0 .175-.393.572.572 0 0 0 -.069-.393.313.313 0 0 0 -.28-.16h-2.949l.9-6.642a.572.572 0 0 0 -.069-.393.314.314 0 0 0 -.28-.159.422.422 0 0 0 -.315.159.718.718 0 0 0 -.175.393l-.972 7.195a.584.584 0 0 0 .065.393.305.305 0 0 0 .275.16zm14.271-8.3a.488.488 0 0 0 -.415.3l-3.209 6.323-1.565-6.323a.347.347 0 0 0 -.335-.3.429.429 0 0 0 -.323.159.711.711 0 0 0 -.175.393l-.973 7.195a.572.572 0 0 0 .069.393.317.317 0 0 0 .28.16.429.429 0 0 0 .323-.16.712.712 0 0 0 .176-.393l.7-5.186 1.259 5.09a.352.352 0 0 0 .346.33.491.491 0 0 0 .4-.277l2.68-5.239-.714 5.282a.572.572 0 0 0 .069.393.315.315 0 0 0 .28.16.432.432 0 0 0 .318-.16.7.7 0 0 0 .18-.393l.972-7.195a.572.572 0 0 0 -.069-.393.314.314 0 0 0 -.279-.159zm3.857 8.406a3.077 3.077 0 0 0 1.751-.542 4.293 4.293 0 0 0 1.349-1.515 6.17 6.17 0 0 0 .71-2.2 5.315 5.315 0 0 0 -.114-2.2 2.946 2.946 0 0 0 -.945-1.509 2.45 2.45 0 0 0 -1.6-.542 3.1 3.1 0 0 0 -1.756.542 4.285 4.285 0 0 0 -1.349 1.509 6.2 6.2 0 0 0 -.7 2.2 5.4 5.4 0 0 0 .109 2.2 2.913 2.913 0 0 0 .94 1.515 2.465 2.465 0 0 0 1.609.542zm.135-1a1.75 1.75 0 0 1 -1.188-.431 2.339 2.339 0 0 1 -.705-1.174 4.089 4.089 0 0 1 -.086-1.658 4.732 4.732 0 0 1 .534-1.658 3.415 3.415 0 0 1 1.018-1.169 2.236 2.236 0 0 1 1.308-.425 1.762 1.762 0 0 1 1.192.425 2.329 2.329 0 0 1 .7 1.169 4.073 4.073 0 0 1 .085 1.658 4.7 4.7 0 0 1 -.533 1.658 3.421 3.421 0 0 1 -1.022 1.174 2.231 2.231 0 0 1 -1.3.431zm7.071 1.065a2.692 2.692 0 0 0 1.391-.378 3.09 3.09 0 0 0 1.063-1.052 3.808 3.808 0 0 0 .536-1.525l.671-4.963a.586.586 0 0 0 -.064-.4.309.309 0 0 0 -.277-.154.43.43 0 0 0 -.322.154.7.7 0 0 0 -.176.4l-.671 4.963a2.482 2.482 0 0 1 -.36 1.01 2.075 2.075 0 0 1 -.718.7 1.851 1.851 0 0 1 -.938.25 1.611 1.611 0 0 1 -.907-.25 1.418 1.418 0 0 1 -.549-.7 2.016 2.016 0 0 1 -.1-1.01l.671-4.963a.581.581 0 0 0 -.065-.4.313.313 0 0 0 -.284-.154.428.428 0 0 0 -.322.154.7.7 0 0 0 -.177.4l-.67 4.963a3.151 3.151 0 0 0 .131 1.531 2.112 2.112 0 0 0 .8 1.046 2.309 2.309 0 0 0 1.33.378zm4.658-.17a.424.424 0 0 0 .327-.16.721.721 0 0 0 .172-.393l.784-5.8 2.719 6.164a.265.265 0 0 0 .123.144.363.363 0 0 0 .177.048.42.42 0 0 0 .318-.155.723.723 0 0 0 .172-.4l.972-7.195a.581.581 0 0 0 -.064-.4.308.308 0 0 0 -.276-.154.432.432 0 0 0 -.323.154.706.706 0 0 0 -.176.4l-.785 5.813-2.719-6.164a.422.422 0 0 0 -.127-.143.292.292 0 0 0 -.172-.058.419.419 0 0 0 -.318.154.716.716 0 0 0 -.172.4l-.972 7.195a.581.581 0 0 0 .064.4.309.309 0 0 0 .276.155zm11.525-8.3h-4.358a.4.4 0 0 0 -.3.143.667.667 0 0 0 -.159.367.537.537 0 0 0 .06.366.292.292 0 0 0 .262.144h1.76l-.91 6.727a.572.572 0 0 0 .069.393.316.316 0 0 0 .28.16.429.429 0 0 0 .323-.16.712.712 0 0 0 .176-.393l.909-6.727h1.751a.4.4 0 0 0 .3-.144.664.664 0 0 0 .159-.366.54.54 0 0 0 -.06-.367.29.29 0 0 0 -.262-.143zm4.417 7.524-1.331-7.152a.355.355 0 0 0 -.348-.372.519.519 0 0 0 -.45.372l-3.253 7.131a.956.956 0 0 0 -.074.244.593.593 0 0 0 .066.388.3.3 0 0 0 .275.165.386.386 0 0 0 .24-.091.684.684 0 0 0 .2-.249l.663-1.49h2.924l.255 1.488a.424.424 0 0 0 .125.249.314.314 0 0 0 .22.091.429.429 0 0 0 .323-.16.7.7 0 0 0 .174-.382.8.8 0 0 0 -.009-.234zm-1.9-5.75.654 3.784h-2.355zm3.191 6.526a.424.424 0 0 0 .327-.16.728.728 0 0 0 .171-.393l.973-7.195a.586.586 0 0 0 -.064-.4.316.316 0 0 0 -.285-.154.43.43 0 0 0 -.322.154.7.7 0 0 0 -.176.4l-.973 7.195a.572.572 0 0 0 .069.393.316.316 0 0 0 .28.16zm2.468 0a.424.424 0 0 0 .327-.16.721.721 0 0 0 .172-.393l.784-5.8 2.719 6.164a.265.265 0 0 0 .123.144.363.363 0 0 0 .177.048.42.42 0 0 0 .318-.155.716.716 0 0 0 .172-.4l.972-7.195a.581.581 0 0 0 -.064-.4.308.308 0 0 0 -.276-.154.432.432 0 0 0 -.323.154.706.706 0 0 0 -.176.4l-.785 5.813-2.719-6.164a.422.422 0 0 0 -.127-.143.292.292 0 0 0 -.172-.058.419.419 0 0 0 -.318.154.723.723 0 0 0 -.172.4l-.972 7.195a.581.581 0 0 0 .064.4.309.309 0 0 0 .276.155zm9.157 0h2.118a2.11 2.11 0 0 0 1.122-.319 2.558 2.558 0 0 0 .862-.893 3.394 3.394 0 0 0 .441-1.3 2.257 2.257 0 0 0 -.143-1.3 1.267 1.267 0 0 0 -.78-.68 2.187 2.187 0 0 0 .681-.67 2.215 2.215 0 0 0 .343-.935 2.481 2.481 0 0 0 -.086-1.142 1.572 1.572 0 0 0 -.558-.787 1.539 1.539 0 0 0 -.931-.281h-1.947a.428.428 0 0 0 -.322.154.693.693 0 0 0 -.176.4l-.973 7.195a.572.572 0 0 0 .069.393.316.316 0 0 0 .28.16zm1.084-4.889.324-2.391h1.523a.889.889 0 0 1 .729.3 1.123 1.123 0 0 1 .169.887 1.438 1.438 0 0 1 -.41.893 1.147 1.147 0 0 1 -.811.308h-1.524zm-.523 3.868.386-2.848h1.694a1.087 1.087 0 0 1 .877.351 1.247 1.247 0 0 1 .21 1.01 1.809 1.809 0 0 1 -.5 1.1 1.351 1.351 0 0 1 -.973.388h-1.7zm5.329 1.021a.424.424 0 0 0 .327-.16.728.728 0 0 0 .171-.393l.973-7.195a.581.581 0 0 0 -.065-.4.313.313 0 0 0 -.284-.154.428.428 0 0 0 -.322.154.7.7 0 0 0 -.177.4l-.972 7.195a.572.572 0 0 0 .069.393.315.315 0 0 0 .28.16zm4.89.106a3.1 3.1 0 0 0 2.121-.925.716.716 0 0 0 .183-.393.588.588 0 0 0 -.051-.377.26.26 0 0 0 -.237-.144.47.47 0 0 0 -.286.128 2.471 2.471 0 0 1 -1.594.7 1.589 1.589 0 0 1 -1.11-.435 2.494 2.494 0 0 1 -.688-1.18 3.963 3.963 0 0 1 -.092-1.637 4.588 4.588 0 0 1 .534-1.631 3.6 3.6 0 0 1 1.007-1.185 2.052 2.052 0 0 1 1.228-.436 1.647 1.647 0 0 1 .8.165 1.956 1.956 0 0 1 .579.537.332.332 0 0 0 .266.138.409.409 0 0 0 .292-.138.6.6 0 0 0 .165-.351.733.733 0 0 0 0-.239.416.416 0 0 0 -.1-.2 2.588 2.588 0 0 0 -.821-.7 2.308 2.308 0 0 0 -1.043-.213 2.835 2.835 0 0 0 -1.669.569 4.659 4.659 0 0 0 -1.345 1.541 5.954 5.954 0 0 0 -.705 2.141 5.2 5.2 0 0 0 .124 2.158 3.151 3.151 0 0 0 .928 1.541 2.234 2.234 0 0 0 1.517.563zm8.859-8.406a.481.481 0 0 0 -.411.265l-2.478 3.986-1.373-3.943a.7.7 0 0 0 -.131-.234.266.266 0 0 0 -.2-.074.438.438 0 0 0 -.317.148.638.638 0 0 0 -.177.372.711.711 0 0 0 .044.34l1.579 4.411-.335 2.476a.572.572 0 0 0 .069.393.31.31 0 0 0 .272.16.43.43 0 0 0 .323-.16.718.718 0 0 0 .175-.393l.335-2.476 2.787-4.411a.883.883 0 0 0 .129-.35.575.575 0 0 0 -.053-.362.256.256 0 0 0 -.236-.148zm2.521 8.406a3.1 3.1 0 0 0 2.121-.925.725.725 0 0 0 .184-.393.588.588 0 0 0 -.051-.377.261.261 0 0 0 -.238-.144.47.47 0 0 0 -.286.128 2.468 2.468 0 0 1 -1.593.7 1.589 1.589 0 0 1 -1.11-.435 2.486 2.486 0 0 1 -.688-1.18 3.98 3.98 0 0 1 -.093-1.637 4.628 4.628 0 0 1 .534-1.631 3.618 3.618 0 0 1 1.008-1.185 2.05 2.05 0 0 1 1.228-.436 1.646 1.646 0 0 1 .8.165 1.956 1.956 0 0 1 .579.537.336.336 0 0 0 .267.138.407.407 0 0 0 .291-.138.591.591 0 0 0 .166-.351.793.793 0 0 0 0-.239.426.426 0 0 0 -.1-.2 2.6 2.6 0 0 0 -.822-.7 2.3 2.3 0 0 0 -1.042-.213 2.838 2.838 0 0 0 -1.67.569 4.645 4.645 0 0 0 -1.344 1.541 5.935 5.935 0 0 0 -.7 2.141 5.2 5.2 0 0 0 .123 2.158 3.152 3.152 0 0 0 .929 1.541 2.231 2.231 0 0 0 1.516.563zm3.908-.106h3.373a.43.43 0 0 0 .323-.16.711.711 0 0 0 .175-.393.572.572 0 0 0 -.069-.393.313.313 0 0 0 -.28-.16h-2.949l.9-6.642a.572.572 0 0 0 -.069-.393.314.314 0 0 0 -.28-.159.422.422 0 0 0 -.315.159.718.718 0 0 0 -.175.393l-.972 7.195a.584.584 0 0 0 .065.393.305.305 0 0 0 .275.16zm5.239 0a.427.427 0 0 0 .327-.16.728.728 0 0 0 .171-.393l.972-7.195a.581.581 0 0 0 -.064-.4.316.316 0 0 0 -.285-.154.43.43 0 0 0 -.322.154.706.706 0 0 0 -.176.4l-.972 7.195a.567.567 0 0 0 .069.393.315.315 0 0 0 .28.16zm2.468 0a.424.424 0 0 0 .327-.16.728.728 0 0 0 .171-.393l.785-5.8 2.718 6.164a.265.265 0 0 0 .123.144.363.363 0 0 0 .177.048.417.417 0 0 0 .318-.155.716.716 0 0 0 .172-.4l.973-7.195a.586.586 0 0 0 -.064-.4.31.31 0 0 0 -.277-.154.43.43 0 0 0 -.322.154.7.7 0 0 0 -.176.4l-.786 5.813-2.719-6.164a.412.412 0 0 0 -.127-.143.289.289 0 0 0 -.171-.058.416.416 0 0 0 -.318.154.709.709 0 0 0 -.172.4l-.973 7.195a.581.581 0 0 0 .064.4.31.31 0 0 0 .277.155zm11.49-4.305h-1.524a.441.441 0 0 0 -.324.139.6.6 0 0 0 -.165.35.469.469 0 0 0 .07.351.332.332 0 0 0 .287.138h1.124l-.255 1.892a2.294 2.294 0 0 1 -1.384.531 1.593 1.593 0 0 1 -1.11-.435 2.494 2.494 0 0 1 -.688-1.18 3.963 3.963 0 0 1 -.092-1.637 4.588 4.588 0 0 1 .534-1.631 3.615 3.615 0 0 1 1.007-1.185 2.052 2.052 0 0 1 1.228-.436 1.647 1.647 0 0 1 .8.165 1.956 1.956 0 0 1 .579.537.327.327 0 0 0 .258.138.415.415 0 0 0 .3-.138.6.6 0 0 0 .166-.351.759.759 0 0 0 0-.239.414.414 0 0 0 -.1-.2 2.6 2.6 0 0 0 -.822-.7 2.3 2.3 0 0 0 -1.043-.213 2.835 2.835 0 0 0 -1.669.569 4.659 4.659 0 0 0 -1.345 1.541 5.974 5.974 0 0 0 -.705 2.141 5.2 5.2 0 0 0 .124 2.158 3.151 3.151 0 0 0 .928 1.541 2.235 2.235 0 0 0 1.517.563 3.043 3.043 0 0 0 2.121-.925.632.632 0 0 0 .183-.393l.343-2.54a.581.581 0 0 0 -.064-.4.309.309 0 0 0 -.276-.155zm8.435 3.529-1.331-7.152a.355.355 0 0 0 -.349-.372.519.519 0 0 0 -.449.372l-3.253 7.131a.956.956 0 0 0 -.074.244.593.593 0 0 0 .066.388.3.3 0 0 0 .275.165.39.39 0 0 0 .24-.091.694.694 0 0 0 .2-.249l.659-1.49h2.925l.255 1.488a.424.424 0 0 0 .125.249.314.314 0 0 0 .22.091.43.43 0 0 0 .323-.16.7.7 0 0 0 .174-.382.831.831 0 0 0 -.009-.234zm-1.9-5.75.653 3.784h-2.354zm4.773 6.632a2.648 2.648 0 0 0 1.165-.271 2.5 2.5 0 0 0 .954-.818 2.883 2.883 0 0 0 .5-1.313 2.324 2.324 0 0 0 -.309-1.695 1.936 1.936 0 0 0 -1.411-.771 1.722 1.722 0 0 1 -1.155-.488 1.182 1.182 0 0 1 -.218-.925 1.291 1.291 0 0 1 .506-.909 1.717 1.717 0 0 1 1.044-.313 1.2 1.2 0 0 1 .8.25 1.546 1.546 0 0 1 .451.728.42.42 0 0 0 .134.217.322.322 0 0 0 .217.08.368.368 0 0 0 .222-.074.58.58 0 0 0 .215-.383.822.822 0 0 0 -.047-.382 2.414 2.414 0 0 0 -.671-1.063 1.667 1.667 0 0 0 -1.131-.372 2.78 2.78 0 0 0 -1.2.26 2.387 2.387 0 0 0 -.916.755 2.5 2.5 0 0 0 -.456 1.174 2.085 2.085 0 0 0 .361 1.61 2.107 2.107 0 0 0 1.476.767 1.391 1.391 0 0 1 1.02.526 1.415 1.415 0 0 1 .219 1.036 1.463 1.463 0 0 1 -.56 1 1.716 1.716 0 0 1 -1.084.367 1.511 1.511 0 0 1 -.914-.287 1.17 1.17 0 0 1 -.484-.7.5.5 0 0 0 -.138-.271.328.328 0 0 0 -.235-.1.24.24 0 0 0 -.083.01.532.532 0 0 0 -.394.447.67.67 0 0 0 .012.212 1.982 1.982 0 0 0 .727 1.222 2.13 2.13 0 0 0 1.374.468zm5.605 0a2.648 2.648 0 0 0 1.165-.271 2.5 2.5 0 0 0 .954-.818 2.883 2.883 0 0 0 .5-1.313 2.324 2.324 0 0 0 -.309-1.695 1.938 1.938 0 0 0 -1.411-.771 1.728 1.728 0 0 1 -1.156-.488 1.182 1.182 0 0 1 -.217-.925 1.287 1.287 0 0 1 .506-.909 1.715 1.715 0 0 1 1.044-.313 1.2 1.2 0 0 1 .8.25 1.547 1.547 0 0 1 .452.728.418.418 0 0 0 .133.217.327.327 0 0 0 .218.08.368.368 0 0 0 .222-.074.575.575 0 0 0 .214-.383.821.821 0 0 0 -.046-.382 2.414 2.414 0 0 0 -.671-1.063 1.669 1.669 0 0 0 -1.131-.372 2.777 2.777 0 0 0 -1.2.26 2.38 2.38 0 0 0 -.916.755 2.5 2.5 0 0 0 -.456 1.174 2.085 2.085 0 0 0 .36 1.61 2.111 2.111 0 0 0 1.485.771 1.391 1.391 0 0 1 1.02.526 1.419 1.419 0 0 1 .219 1.036 1.463 1.463 0 0 1 -.56 1 1.718 1.718 0 0 1 -1.084.367 1.509 1.509 0 0 1 -.914-.287 1.166 1.166 0 0 1 -.484-.7.505.505 0 0 0 -.138-.271.328.328 0 0 0 -.235-.1.24.24 0 0 0 -.083.01.532.532 0 0 0 -.267.165.521.521 0 0 0 -.127.282.67.67 0 0 0 .012.212 1.981 1.981 0 0 0 .726 1.222 2.135 2.135 0 0 0 1.375.468zm6.525 0a3.083 3.083 0 0 0 1.752-.542 4.312 4.312 0 0 0 1.349-1.515 6.169 6.169 0 0 0 .709-2.2 5.315 5.315 0 0 0 -.114-2.2 2.951 2.951 0 0 0 -.944-1.509 2.455 2.455 0 0 0 -1.6-.542 3.1 3.1 0 0 0 -1.756.542 4.283 4.283 0 0 0 -1.348 1.509 6.18 6.18 0 0 0 -.705 2.2 5.4 5.4 0 0 0 .109 2.2 2.919 2.919 0 0 0 .94 1.515 2.465 2.465 0 0 0 1.609.542zm.135-1a1.753 1.753 0 0 1 -1.188-.431 2.353 2.353 0 0 1 -.705-1.174 4.072 4.072 0 0 1 -.085-1.658 4.691 4.691 0 0 1 .534-1.658 3.4 3.4 0 0 1 1.017-1.169 2.24 2.24 0 0 1 1.308-.425 1.765 1.765 0 0 1 1.193.425 2.335 2.335 0 0 1 .7 1.169 4.072 4.072 0 0 1 .086 1.658 4.7 4.7 0 0 1 -.534 1.658 3.41 3.41 0 0 1 -1.022 1.174 2.228 2.228 0 0 1 -1.305.431zm7.116 1a3.1 3.1 0 0 0 2.121-.925.716.716 0 0 0 .183-.393.588.588 0 0 0 -.051-.377.26.26 0 0 0 -.237-.144.47.47 0 0 0 -.286.128 2.469 2.469 0 0 1 -1.594.7 1.593 1.593 0 0 1 -1.11-.435 2.494 2.494 0 0 1 -.688-1.18 3.963 3.963 0 0 1 -.092-1.637 4.588 4.588 0 0 1 .534-1.631 3.6 3.6 0 0 1 1.007-1.185 2.052 2.052 0 0 1 1.228-.436 1.647 1.647 0 0 1 .8.165 1.956 1.956 0 0 1 .579.537.332.332 0 0 0 .266.138.409.409 0 0 0 .292-.138.6.6 0 0 0 .165-.351.733.733 0 0 0 0-.239.416.416 0 0 0 -.1-.2 2.588 2.588 0 0 0 -.821-.7 2.3 2.3 0 0 0 -1.043-.213 2.835 2.835 0 0 0 -1.669.569 4.659 4.659 0 0 0 -1.345 1.541 5.974 5.974 0 0 0 -.705 2.141 5.2 5.2 0 0 0 .124 2.158 3.151 3.151 0 0 0 .928 1.541 2.235 2.235 0 0 0 1.517.563zm3.916-.106a.424.424 0 0 0 .327-.16.728.728 0 0 0 .171-.393l.973-7.195a.586.586 0 0 0 -.064-.4.316.316 0 0 0 -.285-.154.43.43 0 0 0 -.322.154.7.7 0 0 0 -.176.4l-.973 7.195a.572.572 0 0 0 .069.393.316.316 0 0 0 .28.16zm6.915-.776-1.33-7.152a.355.355 0 0 0 -.349-.372.519.519 0 0 0 -.45.372l-3.253 7.131a.949.949 0 0 0 -.073.244.593.593 0 0 0 .065.388.3.3 0 0 0 .275.165.39.39 0 0 0 .241-.091.692.692 0 0 0 .2-.249l.656-1.49h2.924l.256 1.488a.418.418 0 0 0 .125.249.312.312 0 0 0 .22.091.43.43 0 0 0 .323-.16.709.709 0 0 0 .174-.382.836.836 0 0 0 -.01-.234zm-1.9-5.75.654 3.784h-2.354zm7.3-1.774h-4.358a.4.4 0 0 0 -.3.143.667.667 0 0 0 -.159.367.537.537 0 0 0 .06.366.291.291 0 0 0 .262.144h1.759l-.909 6.727a.572.572 0 0 0 .069.393.316.316 0 0 0 .28.16.429.429 0 0 0 .323-.16.711.711 0 0 0 .175-.393l.91-6.727h1.751a.4.4 0 0 0 .3-.144.664.664 0 0 0 .159-.366.54.54 0 0 0 -.06-.367.291.291 0 0 0 -.262-.143zm.63 8.3a.426.426 0 0 0 .327-.16.728.728 0 0 0 .171-.393l.972-7.195a.581.581 0 0 0 -.064-.4.315.315 0 0 0 -.284-.154.432.432 0 0 0 -.323.154.706.706 0 0 0 -.176.4l-.972 7.195a.572.572 0 0 0 .069.393.315.315 0 0 0 .28.16zm4.979.106a3.077 3.077 0 0 0 1.751-.542 4.3 4.3 0 0 0 1.35-1.515 6.189 6.189 0 0 0 .709-2.2 5.315 5.315 0 0 0 -.114-2.2 2.946 2.946 0 0 0 -.945-1.509 2.45 2.45 0 0 0 -1.6-.542 3.1 3.1 0 0 0 -1.756.542 4.274 4.274 0 0 0 -1.348 1.509 6.18 6.18 0 0 0 -.7 2.2 5.4 5.4 0 0 0 .109 2.2 2.913 2.913 0 0 0 .94 1.515 2.465 2.465 0 0 0 1.609.542zm.135-1a1.75 1.75 0 0 1 -1.188-.431 2.339 2.339 0 0 1 -.7-1.174 4.089 4.089 0 0 1 -.086-1.658 4.732 4.732 0 0 1 .534-1.658 3.415 3.415 0 0 1 1.018-1.169 2.238 2.238 0 0 1 1.308-.425 1.767 1.767 0 0 1 1.193.425 2.335 2.335 0 0 1 .7 1.169 4.073 4.073 0 0 1 .085 1.658 4.7 4.7 0 0 1 -.533 1.658 3.421 3.421 0 0 1 -1.022 1.174 2.228 2.228 0 0 1 -1.305.431zm4.857.893a.424.424 0 0 0 .327-.16.728.728 0 0 0 .171-.393l.785-5.8 2.718 6.164a.265.265 0 0 0 .123.144.363.363 0 0 0 .177.048.417.417 0 0 0 .318-.155.716.716 0 0 0 .172-.4l.973-7.195a.586.586 0 0 0 -.064-.4.31.31 0 0 0 -.277-.154.43.43 0 0 0 -.322.154.7.7 0 0 0 -.176.4l-.786 5.813-2.719-6.164a.412.412 0 0 0 -.127-.143.289.289 0 0 0 -.171-.058.416.416 0 0 0 -.318.154.709.709 0 0 0 -.172.4l-.973 7.195a.581.581 0 0 0 .064.4.31.31 0 0 0 .277.155z"/><path d="m814.844 115a28.25 28.25 0 1 1 -28.156 28.25 28.2 28.2 0 0 1 28.156-28.25zm0 4.719a23.531 23.531 0 1 1 -23.469 23.531 23.5 23.5 0 0 1 23.469-23.531z"/><path d="m815 123a20 20 0 1 1 -20 20 20 20 0 0 1 20-20zm-.213 10.33c-.552 1.085-8.531 17.944-9.465 19.775-.771 1.51.247 1.505.645 1.505h3.012a1.269 1.269 0 0 0 1.291-.86c.334-.751 1.456-3.224 1.721-3.224.213 0 3.585-.007 4.517 0 .73 0 .242 4.04 1.506 4.084.782.027 2.113 0 3.012 0s1.416-.32 1.29-1.29-2.481-19.234-2.581-20.2a1.453 1.453 0 0 0 -1.076-1.5h-2.151c-1.059-.01-1.174.635-1.721 1.71zm-.86 12.682c-.519 0 1.59-3.618 1.721-3.869.158-.3.43-.095.43 1.074v1.72c0 .441.039 1.075-.215 1.075z"/><path d="m705.975 166.1a28.253 28.253 0 1 1 .011-45.215c8.426 5.951 19.278 6.708 29.807-.01a28.255 28.255 0 1 1 -1.191 44.279 23.988 23.988 0 0 0 -28.627.946zm-16.881-46.162a23.547 23.547 0 1 1 -23.469 23.546 23.507 23.507 0 0 1 23.469-23.546zm63.578 0a23.547 23.547 0 1 1 -23.453 23.546 23.5 23.5 0 0 1 23.453-23.546z"/><path d="m753 123a20 20 0 1 1 -20 20 20 20 0 0 1 20-20zm1.292 31.388c3.571 0 6.925-3.767 7.314-7.959.213-2.305-1.378-3.11-1.291-3.464a3.482 3.482 0 0 1 1.076-1.053c.477-.438 1.721-2.073 1.721-5.163 0-3.073-3.388-5.377-5.378-5.377h-7.818c-1.416 0-1.385.732-1.52 1.5s-3.243 18.521-3.475 19.79c-.185 1.017-.144 1.711.435 1.721.354.006 3.277 0 3.691 0h5.245zm-1.936-15.918c.415-2.4.295-2.335 1.72-2.366s2.838-.18 3.658.43a1.815 1.815 0 0 1 .43 1.506c-.048.688-.841 2.581-2.582 2.581h-3.442c-.24 0-.107-.291.216-2.151zm-1.589 9.053c.421-2.376.3-2.314 1.743-2.345s2.875-.178 3.705.427a1.768 1.768 0 0 1 .436 1.492 2.912 2.912 0 0 1 -2.615 2.558h-3.487c-.249 0-.109-.288.218-2.132z"/><path d="m689 123a20 20 0 1 1 -20 20 20 20 0 0 1 20-20zm-4.281 20.426c-.888 4.986-1.76 9.856-1.819 10.1-.114.471-.237.861-.651.861s-3.337.006-3.692 0c-.578-.01-.62-.7-.434-1.721.231-1.269 3.339-19.016 3.474-19.79s.1-1.5 1.52-1.5h2.389c.515 0 .931.225 1.086 1.5s1.4 7.731 1.761 9.68c.3 1.613.731 1.784 1.076 1.075.179-.366 5.89-10.49 5.936-10.755.135-.773.1-1.5 1.52-1.5h2.389a1.08 1.08 0 0 1 1.085 1.5c-.463 2.629-3.577 20.179-3.691 20.65s-.237.861-.652.861-3.337.006-3.691 0c-.579-.01-.62-.7-.435-1.721.1-.549.739-4.183 1.442-8.192a5.925 5.925 0 0 0 -1.107 1.739c-.212.5-2.4 4.4-2.581 4.732s-.271.86-1.721.86-1.815-.128-2.151-2.151-.836-7.029-1.053-6.228z"/><path d="m627.156 115.219a28.266 28.266 0 1 1 -28.156 28.265 28.21 28.21 0 0 1 28.156-28.265zm0 4.719a23.547 23.547 0 1 1 -23.468 23.546 23.507 23.507 0 0 1 23.468-23.546z"/><path d="m627 123a20 20 0 1 1 -20 20 20 20 0 0 1 20-20zm1.073 8.372h2.367a1.077 1.077 0 0 1 1.075 1.5c-.459 2.629-3.544 20.179-3.657 20.65s-.235.861-.645.861-3.306.006-3.657 0c-.573-.01-.614-.7-.43-1.721.229-1.269 3.308-19.016 3.442-19.79s.103-1.5 1.505-1.5z"/></g></g></svg>