<svg height="383.438" viewBox="0 0 504.031 383.438" width="504.031" xmlns="http://www.w3.org/2000/svg"><g transform="translate(-4 -4.563)"><path d="m151.432 224.73c42.6-74.169 72.145-126.19 111.441-193.931 5.578-13.276-.787-23.247-14.083-23.247-24.881 0-161.966-.007-220.433 0-10.058 0-18.937 9.067-14.7 22.024 10.743 18.786 100.084 174.686 112.67 195.154.071.116 4.128 6.729 12.246 6.729a15.107 15.107 0 0 0 12.859-6.729z" fill="none" stroke="#fff" stroke-linecap="round" stroke-linejoin="round" stroke-width="6"/><path d="m62.813 42.281h32.906a5 5 0 0 1 5 5v32.844a5 5 0 0 1 -5 5h-32.906a5 5 0 0 1 -5-5v-32.844a5 5 0 0 1 5-5z" fill="none" stroke="#fff" stroke-width="2"/><path d="m68.844 63.75a6.719 6.719 0 1 1 -6.75 6.719 6.734 6.734 0 0 1 6.75-6.719zm20.829-.045a6.735 6.735 0 1 1 -6.739 6.735 6.737 6.737 0 0 1 6.739-6.735z" fill="none" stroke="#fff" stroke-width="2"/><path d="m82.641 47.813a2.719 2.719 0 1 1 -2.766 2.719 2.742 2.742 0 0 1 2.766-2.719zm-.313 9.781h6.094a.64.64 0 0 1 .64.64v1.188a.64.64 0 0 1 -.64.64h-6.094a.64.64 0 0 1 -.64-.64v-1.188a.64.64 0 0 1 .64-.64zm-4.128 4.219h1.479a.792.792 0 0 1 .792.792v9.479a.792.792 0 0 1 -.792.792h-1.479a.792.792 0 0 1 -.792-.792v-9.484a.792.792 0 0 1 .792-.787zm-7.192-3.238a2 2 0 0 1 2.665-.763l5.957 3.488a1.871 1.871 0 0 1 .543 2.639 2 2 0 0 1 -2.665.763l-5.958-3.488a1.871 1.871 0 0 1 -.544-2.64zm8.709-5.7a2.858 2.858 0 0 1 .022 3.894l-4.594 4.9a2.522 2.522 0 0 1 -3.7.023 2.858 2.858 0 0 1 -.022-3.894l4.594-4.9a2.522 2.522 0 0 1 3.698-.024zm.17 1.359a1.226 1.226 0 0 1 1.642.553l1.361 2.742a1.225 1.225 0 0 1 -2.2 1.088l-1.361-2.743a1.224 1.224 0 0 1 .557-1.641z" fill="#fff" fill-rule="evenodd"/><path d="m181.656 42.281h32.906a5 5 0 0 1 5 5v32.844a5 5 0 0 1 -5 5h-32.906a5 5 0 0 1 -5-5v-32.844a5 5 0 0 1 5-5z" fill="none" stroke="#fff" stroke-width="2"/><path d="m199.814 53.906a1.161 1.161 0 0 1 1.241.561l.74 5.552c.044.328-.441.61-1.082.629a1.161 1.161 0 0 1 -1.241-.561l-.74-5.552c-.044-.329.441-.61 1.082-.629zm-2.751 6.184a1.821 1.821 0 0 0 -1.334 2.183l3.756 16.544a1.782 1.782 0 0 0 2.139 1.362 1.821 1.821 0 0 0 1.334-2.183l-3.758-16.545a1.782 1.782 0 0 0 -2.137-1.361zm1.137-7.433c-1.384-.317-2.634-.02-2.792.663l-2.678 11.546c-.158.683.835 1.494 2.219 1.811s2.633.02 2.792-.663l2.677-11.546c.158-.683-.835-1.494-2.218-1.811zm2.513 6.767c.222-.771.635-1.33.922-1.249l4.849 1.379c.287.081.339.773.117 1.544s-.635 1.33-.922 1.249l-4.849-1.379c-.287-.081-.339-.768-.117-1.544zm-7.862-8.849c-1.153-.262-2.186-.077-2.308.412l-2.051 8.266c-.122.489.715 1.1 1.867 1.36s2.186.077 2.308-.412l2.051-8.266c.122-.489-.718-1.098-1.867-1.36zm6.2-4.044a2.766 2.766 0 1 1 -2.8 2.766 2.781 2.781 0 0 1 2.796-2.766zm10.3 8.1a.9.9 0 0 1 .755 1.034l-4.2 24.6a.919.919 0 0 1 -1.811-.309l4.2-24.605a.905.905 0 0 1 1.05-.719zm-13.657 5.5a1.821 1.821 0 0 1 1.3 2.207l-4.07 16.474a1.791 1.791 0 0 1 -2.174 1.323 1.82 1.82 0 0 1 -1.3-2.207l4.069-16.474a1.791 1.791 0 0 1 2.169-1.322z" fill="#fff" fill-rule="evenodd"/><path d="m122.188 145.719h32.968a5 5 0 0 1 5 5v32.875a5 5 0 0 1 -5 5h-32.968a5 5 0 0 1 -5-5v-32.875a5 5 0 0 1 5-5z" fill="none" stroke="#fff" stroke-width="2"/><g fill="#fff" fill-rule="evenodd"><path d="m141.139 162.888 9.19-9.183.613 2.449a40.643 40.643 0 0 1 4.288 3.673c.82 1.036.609 2.437-1.225 2.449s-3.122-1.009-3.676-.612-2.691 4.579-3.676 6.735a9.439 9.439 0 0 0 -1.225 4.9h-3.676s.277-1.225-.613-1.225-6.144-.021-6.74 0c-.767.534-.828 1.6-1.225 1.837s-3.064 1.836-3.064 1.836a6.1 6.1 0 0 1 -.612-1.836c.456-1.189-.953-1.05-1.226.612h-3.063s-.11-1.474.613-1.837c.762-.383.773-3.874.612-5.51s-1.186-1.474-1.225 1.225h-2.451s-.838-5.481 2.451-5.511 15.93-.002 15.93-.002zm1.566 5.518h1.747a.955.955 0 0 1 .954.955v13.4a.955.955 0 0 1 -.954.955h-1.747a.955.955 0 0 1 -.955-.955v-13.4a.955.955 0 0 1 .955-.955zm-13.354 1.33a1.724 1.724 0 0 1 2.169.885l4.6 10.969a1.512 1.512 0 0 1 -.959 2 1.724 1.724 0 0 1 -2.169-.885l-4.6-10.968a1.514 1.514 0 0 1 .959-2.001zm-3.329 2.326h1.456a.8.8 0 0 1 .8.8v10.049a.8.8 0 0 1 -.8.8h-1.456a.8.8 0 0 1 -.8-.8v-10.045a.8.8 0 0 1 .8-.804z"/><path d="m134.425 156.125h2.337a1.269 1.269 0 0 1 1.269 1.269v6.681a1.269 1.269 0 0 1 -1.269 1.269h-2.337a1.269 1.269 0 0 1 -1.269-1.269v-6.681a1.269 1.269 0 0 1 1.269-1.269zm3.612 2.717 3.608.7a1.224 1.224 0 1 1 -.468 2.4l-3.608-.7a1.225 1.225 0 1 1 .468-2.4zm-2.443-8.186a2.438 2.438 0 1 1 -2.438 2.438 2.438 2.438 0 0 1 2.438-2.438z"/><path d="m168.488 62.526c-5.675-3.212-9.656-5.439-14.839-8.4a1.147 1.147 0 0 0 -1.779 1.062c0 1.876-.029 14.189 0 16.618a1.175 1.175 0 0 0 1.685 1.108c1.438-.81 13.367-7.545 14.933-8.494a1.127 1.127 0 0 0 0-1.894zm-59.488-3.057h44.062v8.031h-44.062z"/><path d="m110.242 144.375c-.01-6.518-.039-11.076-.022-17.043a1.147 1.147 0 0 0 -1.8-1.024c-1.63.923-12.346 6.962-14.442 8.183a1.174 1.174 0 0 0 -.131 2.011c1.413.852 13.154 7.91 14.752 8.8a1.125 1.125 0 0 0 1.643-.927zm-26.726-53.239 21.76 38.345-6.929 3.926-21.759-38.346z"/><path d="m167.1 144.467c.01-6.541.039-11.115.022-17.1a1.149 1.149 0 0 1 1.8-1.028c1.632.927 12.36 6.986 14.459 8.212a1.18 1.18 0 0 1 .131 2.018c-1.415.855-13.169 7.938-14.768 8.836a1.126 1.126 0 0 1 -1.644-.938zm26.752-53.427-21.784 38.481 6.932 3.939 21.784-38.48z"/><path d="m122.724 98.052v-5.124l4.037-6.909h-1.769l-1.733 3.321c-.464.91-.875 1.7-1.214 2.481h-.036c-.375-.839-.733-1.571-1.2-2.481l-1.7-3.321h-1.769l3.8 6.927v5.106h1.573zm5.29-12.033v12.033h1.554v-12.033zm10.506 5.106h-4.681v-3.8h4.949v-1.3h-6.5v12.027h6.771v-1.3h-5.217v-4.342h4.681v-1.285zm2.557 6.927h6.7v-1.3h-5.145v-10.733h-1.554v12.033zm8.434-.036a25.1 25.1 0 0 0 2.823.143 7.423 7.423 0 0 0 5.324-1.732 6.363 6.363 0 0 0 1.733-4.677 5.54 5.54 0 0 0 -1.7-4.32 6.9 6.9 0 0 0 -4.878-1.5 22.289 22.289 0 0 0 -3.305.25v11.836zm1.554-10.694a8.843 8.843 0 0 1 1.823-.161c3.287 0 4.895 1.8 4.877 4.642 0 3.249-1.8 5.106-5.127 5.106a9.831 9.831 0 0 1 -1.573-.089v-9.5zm-19.192 32.158h1.572v-10.712h3.681v-1.321h-8.915v1.321h3.662zm10.99-12.229c-3.216 0-5.592 2.5-5.592 6.32 0 3.642 2.233 6.105 5.413 6.105 3.073 0 5.592-2.2 5.592-6.337 0-3.571-2.126-6.088-5.413-6.088zm-.072 1.268c2.591 0 3.841 2.5 3.841 4.891 0 2.732-1.393 5-3.859 5-2.447 0-3.841-2.3-3.841-4.874 0-2.643 1.286-5.017 3.859-5.017z"/><path d="m53.981 35.568h2.247v-15.308h5.26v-1.888h-12.741v1.888h5.234zm9.42 0h2.221v-7.45h2.094c2.017.077 2.936.97 3.447 3.342a22.271 22.271 0 0 0 1.149 4.108h2.3a27.348 27.348 0 0 1 -1.328-4.72c-.409-1.786-1.2-3.011-2.528-3.47v-.078a4.515 4.515 0 0 0 3.244-4.387 4.281 4.281 0 0 0 -1.353-3.266c-1.072-.969-2.6-1.4-4.979-1.4a23.155 23.155 0 0 0 -4.268.353v16.968zm2.221-15.41a9.149 9.149 0 0 1 2.2-.2c2.349.026 3.957 1 3.957 3.215 0 1.965-1.506 3.266-3.881 3.266h-2.276zm20.525 10 1.838 5.409h2.375l-5.872-17.2h-2.681l-5.847 17.2h2.3l1.787-5.409zm-5.647-1.734 1.685-4.975c.332-1.046.613-2.092.868-3.113h.051c.255 1 .511 2.016.894 3.138l1.685 4.95zm12.386-10.052v17.2h2.221v-17.2zm6.1 17.2h9.574v-1.867h-7.353v-15.333h-2.22v17.2zm29.027-2.322a8.9 8.9 0 0 1 -3.626.714c-4.187 0-6.613-2.7-6.613-6.914 0-4.516 2.681-7.093 6.715-7.093a8.1 8.1 0 0 1 3.473.714l.536-1.811a9.231 9.231 0 0 0 -4.085-.765c-5.336 0-8.987 3.648-8.987 9.032 0 5.638 3.651 8.7 8.5 8.7a11.032 11.032 0 0 0 4.544-.816zm9.674-15.155c-4.6 0-7.991 3.572-7.991 9.032 0 5.2 3.191 8.726 7.736 8.726 4.391 0 7.991-3.138 7.991-9.057.001-5.108-3.037-8.705-7.735-8.705zm-.1 1.811c3.7 0 5.489 3.572 5.489 6.991 0 3.9-1.991 7.144-5.514 7.144-3.5 0-5.49-3.291-5.49-6.965-.001-3.776 1.837-7.176 5.514-7.176zm10.7-1.531v10.125c0 5.332 2.655 7.348 6.178 7.348 3.728 0 6.511-2.169 6.511-7.45v-10.026h-2.247v10.18c0 3.8-1.634 5.485-4.187 5.485-2.3 0-4.009-1.633-4.009-5.485v-10.18h-2.246zm16.542 17.2h2.221v-7.45h2.094c2.017.077 2.936.97 3.446 3.342a22.242 22.242 0 0 0 1.149 4.108h2.3a27.415 27.415 0 0 1 -1.328-4.72c-.408-1.786-1.2-3.011-2.527-3.47v-.085a4.515 4.515 0 0 0 3.242-4.388 4.281 4.281 0 0 0 -1.353-3.266c-1.072-.969-2.6-1.4-4.978-1.4a23.153 23.153 0 0 0 -4.264.357v16.965zm2.221-15.41a9.143 9.143 0 0 1 2.2-.2c2.349.026 3.957 1 3.957 3.215 0 1.965-1.506 3.266-3.881 3.266h-2.272v-6.288zm15.01 15.41h2.24v-15.315h5.26v-1.888h-12.739v1.888h5.234v15.308zm18.33-9.9h-6.69v-5.441h7.072v-1.862h-9.293v17.2h9.676v-1.867h-7.455v-6.2h6.689v-1.837zm2.782 9.057a8.9 8.9 0 0 0 4.391 1.1c4.06 0 6.026-2.3 6.026-4.949 0-2.526-1.481-3.929-4.392-5.052-2.374-.918-3.421-1.709-3.421-3.317 0-1.174.893-2.577 3.242-2.577a6.853 6.853 0 0 1 3.268.816l.613-1.811a7.822 7.822 0 0 0 -3.8-.842c-3.345 0-5.566 1.99-5.566 4.669 0 2.424 1.736 3.878 4.545 4.873 2.323.893 3.242 1.811 3.242 3.419 0 1.735-1.327 2.934-3.6 2.934a7.877 7.877 0 0 1 -3.983-1.123zm19.53.842v-7.329l5.77-9.874h-2.528l-2.476 4.746c-.664 1.3-1.251 2.424-1.736 3.546h-.052c-.536-1.2-1.046-2.245-1.71-3.546l-2.426-4.745h-2.527l5.438 9.9v7.3h2.245z"/><path d="m292.042 64.918h11.858v-20.787h3.61c4.867.078 7.144 1.883 8.557 8.472 1.57 6.511 2.826 10.825 3.689 12.315h12.244c-1.021-2.039-2.669-8.942-4.318-14.9-1.334-4.863-3.375-8.393-7.064-9.884v-.239a14.032 14.032 0 0 0 9.341-13.021c0-4.863-1.727-8.55-4.867-11.06-3.768-2.981-9.263-4.157-17.113-4.157a105.214 105.214 0 0 0 -15.935 1.1v52.161zm11.858-44.006a29.871 29.871 0 0 1 5.416-.392c5.5.078 8.792 2.51 8.792 7.373 0 4.628-3.533 7.609-9.5 7.609h-4.708zm34.219-8.864v29.494c0 16.865 7.85 24.238 21.194 24.238 13.816 0 22.058-7.766 22.058-24.081v-29.651h-11.936v30.435c0 9.334-3.453 13.727-9.733 13.727-6.123 0-9.577-4.628-9.577-13.727v-30.435h-12.01zm53.607 52.869h33.047v-10.04h-21.041v-42.829h-12.01v52.87zm71.584-32.082h-19.472v-10.981h20.645v-9.806h-32.655v52.87h33.754v-9.806h-21.744v-12.55h19.468v-9.727zm8.39 29.651c2.982 1.647 8.948 3.216 14.993 3.216 14.522 0 21.351-7.53 21.351-16.394 0-7.452-4.4-12.315-13.737-15.767-6.829-2.589-9.812-4.079-9.812-7.452 0-2.745 2.512-5.1 7.692-5.1a25.172 25.172 0 0 1 11.069 2.51l2.669-9.648a32.438 32.438 0 0 0 -13.5-2.667c-12.481 0-20.017 6.9-20.017 15.924 0 7.687 5.73 12.551 14.522 15.61 6.358 2.275 8.87 4.157 8.87 7.452 0 3.451-2.9 5.726-8.4 5.726a30.541 30.541 0 0 1 -13.267-3.296z"/><path d="m265.544 106.783c-10.519 0-18.84 7.452-18.84 20.159 0 12 7.929 19.532 18.212 19.532 9.184 0 18.918-6.118 18.918-20.159 0-11.609-7.379-19.532-18.29-19.532zm-.157 5.177c8.164 0 11.382 8.158 11.382 14.59 0 8.55-4.945 14.747-11.539 14.747-6.751 0-11.539-6.275-11.539-14.59 0-7.216 3.532-14.747 11.696-14.747zm34.69 33.651v-32.711h9.185v-5.256h-9.185v-2.039c0-5.805 1.492-10.982 7.379-10.982a10.318 10.318 0 0 1 4.4.863l.942-5.334a16.026 16.026 0 0 0 -5.887-1.1 13.222 13.222 0 0 0 -9.263 3.53c-3.218 3.059-4.4 7.923-4.4 13.257v1.8h-5.338v5.261h5.338v32.709h6.829zm33.591-47.064v9.1h-5.887v5.253h5.887v20.71c0 4.471.707 7.844 2.669 9.884 1.649 1.882 4.239 2.9 7.458 2.9a16.921 16.921 0 0 0 6.122-.941l-.314-5.178a15.341 15.341 0 0 1 -4 .471c-3.846 0-5.181-2.667-5.181-7.373v-20.473h9.891v-5.256h-9.891v-10.9zm24.409 47.064h6.908v-22.9a8.361 8.361 0 0 1 .471-3.295 9.925 9.925 0 0 1 9.263-6.9c6.515 0 8.792 5.177 8.792 11.3v21.806h6.908v-22.602c0-13.1-8.164-16.237-13.267-16.237a14.23 14.23 0 0 0 -7.064 1.961 12.816 12.816 0 0 0 -4.946 4.864h-.157v-23.69h-6.908zm74.1-17.727a26.135 26.135 0 0 0 .235-3.216c0-6.982-3.3-17.885-15.7-17.885-11.069 0-17.82 9.021-17.82 20.473s6.987 19.14 18.683 19.14a30.794 30.794 0 0 0 12.638-2.353l-1.177-4.942a25 25 0 0 1 -10.519 1.961c-6.908 0-12.874-3.844-13.031-13.178h26.69zm-26.611-4.942c.549-4.785 3.611-11.217 10.6-11.217 7.771 0 9.655 6.824 9.577 11.217h-20.18z"/><path d="m214.538 231.3h12.01v-42.828h14.444v-10.04h-40.662v10.04h14.208zm32.806 0h11.856v-20.786h3.611c4.867.078 7.144 1.883 8.557 8.472 1.569 6.51 2.825 10.824 3.689 12.315h12.243c-1.021-2.04-2.669-8.942-4.318-14.9-1.334-4.863-3.375-8.393-7.065-9.884v-.235a14.031 14.031 0 0 0 9.342-13.021c0-4.863-1.727-8.55-4.867-11.06-3.768-2.981-9.263-4.158-17.113-4.158a105.133 105.133 0 0 0 -15.935 1.1zm11.856-44a29.99 29.99 0 0 1 5.417-.392c5.5.079 8.791 2.51 8.791 7.374 0 4.628-3.532 7.608-9.5 7.608h-4.708zm62.869 30.436 4.082 13.57h12.874l-16.406-52.869h-15.7l-16.173 52.863h12.4l3.768-13.57h15.15zm-13.423-8.943 3.14-11.217c.864-3.059 1.649-7.059 2.434-10.2h.157c.785 3.138 1.727 7.06 2.668 10.2l3.3 11.217h-11.7zm37.437-30.356v52.863h12.01v-52.868h-12.013zm22.365 52.863h33.052v-10.04h-21.042v-42.828h-12.01z"/><path d="m16.353 387.65a.877.877 0 0 0 .675-.328 1.5 1.5 0 0 0 .354-.808l2.009-14.79a1.2 1.2 0 0 0 -.133-.819.653.653 0 0 0 -.588-.316.892.892 0 0 0 -.666.316 1.453 1.453 0 0 0 -.364.819l-2.009 14.79a1.171 1.171 0 0 0 .143.808.651.651 0 0 0 .578.328zm5.1 0a.878.878 0 0 0 .676-.328 1.5 1.5 0 0 0 .354-.808l1.62-11.928 5.616 12.67a.538.538 0 0 0 .255.3.749.749 0 0 0 .365.1.868.868 0 0 0 .657-.317 1.484 1.484 0 0 0 .355-.819l2.009-14.79a1.2 1.2 0 0 0 -.133-.819.639.639 0 0 0 -.571-.316.892.892 0 0 0 -.666.316 1.453 1.453 0 0 0 -.364.819l-1.626 11.944-5.614-12.674a.851.851 0 0 0 -.263-.3.6.6 0 0 0 -.354-.12.866.866 0 0 0 -.657.316 1.486 1.486 0 0 0 -.355.819l-2.009 14.79a1.192 1.192 0 0 0 .133.819.64.64 0 0 0 .571.317zm23.805-17.061h-9a.816.816 0 0 0 -.621.294 1.366 1.366 0 0 0 -.329.754 1.1 1.1 0 0 0 .125.754.6.6 0 0 0 .541.295h3.626l-1.878 13.828a1.17 1.17 0 0 0 .142.808.651.651 0 0 0 .578.328.887.887 0 0 0 .667-.328 1.465 1.465 0 0 0 .362-.808l1.878-13.828h3.618a.817.817 0 0 0 .62-.295 1.365 1.365 0 0 0 .33-.754 1.1 1.1 0 0 0 -.125-.754.6.6 0 0 0 -.54-.294zm1.3 17.061h7.606a.877.877 0 0 0 .663-.295 1.374 1.374 0 0 0 .341-.776 1.021 1.021 0 0 0 -.135-.742.663.663 0 0 0 -.584-.284h-6.732l.742-5.462h4.829a.882.882 0 0 0 .654-.3 1.306 1.306 0 0 0 .346-.753 1.04 1.04 0 0 0 -.142-.754.657.657 0 0 0 -.574-.295h-4.828l.721-5.308h6.735a.888.888 0 0 0 .661-.284 1.284 1.284 0 0 0 .337-.743 1.1 1.1 0 0 0 -.13-.776.654.654 0 0 0 -.582-.294h-7.611a.892.892 0 0 0 -.666.316 1.453 1.453 0 0 0 -.364.819l-2.009 14.79a1.17 1.17 0 0 0 .142.808.651.651 0 0 0 .578.328zm19.672-1.75-1.845-5.374a5.183 5.183 0 0 0 1.9-1.813 6.713 6.713 0 0 0 .98-2.753 6.449 6.449 0 0 0 -.167-2.8 3.676 3.676 0 0 0 -1.273-1.9 3.436 3.436 0 0 0 -2.137-.677h-3.034a.892.892 0 0 0 -.666.316 1.454 1.454 0 0 0 -.364.819l-2.009 14.79a1.171 1.171 0 0 0 .143.808.651.651 0 0 0 .578.328.877.877 0 0 0 .675-.328 1.5 1.5 0 0 0 .354-.808l.739-5.44h2.457l2.075 6.03a.7.7 0 0 0 .683.546.851.851 0 0 0 .654-.295 1.327 1.327 0 0 0 .327-.732 1.541 1.541 0 0 0 -.07-.721zm-5.841-6.925.854-6.291h2.157a2 2 0 0 1 1.76.917 3.317 3.317 0 0 1 .42 2.359 3.635 3.635 0 0 1 -1.036 2.174 2.758 2.758 0 0 1 -2 .841zm8.565 8.673a.878.878 0 0 0 .675-.328 1.5 1.5 0 0 0 .354-.808l1.62-11.928 5.615 12.67a.539.539 0 0 0 .255.3.75.75 0 0 0 .365.1.868.868 0 0 0 .657-.317 1.483 1.483 0 0 0 .355-.819l2.009-14.79a1.2 1.2 0 0 0 -.133-.819.639.639 0 0 0 -.571-.316.892.892 0 0 0 -.666.316 1.453 1.453 0 0 0 -.364.819l-1.625 11.946-5.612-12.674a.852.852 0 0 0 -.263-.3.6.6 0 0 0 -.354-.12.866.866 0 0 0 -.657.316 1.486 1.486 0 0 0 -.355.819l-2.009 14.79a1.192 1.192 0 0 0 .133.819.64.64 0 0 0 .571.317zm23.152-1.595-2.748-14.7a.732.732 0 0 0 -.721-.764 1.071 1.071 0 0 0 -.928.764l-6.719 14.658a1.971 1.971 0 0 0 -.152.5 1.213 1.213 0 0 0 .136.8.624.624 0 0 0 .568.339.814.814 0 0 0 .5-.186 1.432 1.432 0 0 0 .406-.513l1.374-3.059h6.041l.527 3.059a.875.875 0 0 0 .258.513.654.654 0 0 0 .454.186.887.887 0 0 0 .667-.328 1.428 1.428 0 0 0 .359-.786 1.692 1.692 0 0 0 -.019-.481zm-3.931-11.818 1.35 7.777h-4.863zm15.068-3.648h-9a.817.817 0 0 0 -.621.294 1.365 1.365 0 0 0 -.329.754 1.1 1.1 0 0 0 .125.754.6.6 0 0 0 .541.295h3.631l-1.878 13.828a1.171 1.171 0 0 0 .142.808.651.651 0 0 0 .578.328.887.887 0 0 0 .667-.328 1.465 1.465 0 0 0 .362-.808l1.878-13.828h3.618a.819.819 0 0 0 .621-.295 1.363 1.363 0 0 0 .329-.754 1.1 1.1 0 0 0 -.125-.754.6.6 0 0 0 -.54-.294zm1.3 17.061a.879.879 0 0 0 .676-.328 1.5 1.5 0 0 0 .354-.808l2.008-14.79a1.2 1.2 0 0 0 -.132-.819.653.653 0 0 0 -.588-.316.892.892 0 0 0 -.666.316 1.461 1.461 0 0 0 -.364.819l-2.008 14.79a1.172 1.172 0 0 0 .142.808.653.653 0 0 0 .578.328zm10.286.218a6.374 6.374 0 0 0 3.617-1.114 8.868 8.868 0 0 0 2.787-3.113 12.649 12.649 0 0 0 1.466-4.533 10.883 10.883 0 0 0 -.236-4.522 6.046 6.046 0 0 0 -1.951-3.1 5.079 5.079 0 0 0 -3.307-1.114 6.416 6.416 0 0 0 -3.626 1.114 8.781 8.781 0 0 0 -2.785 3.1 12.688 12.688 0 0 0 -1.456 4.522 11.036 11.036 0 0 0 .226 4.533 5.994 5.994 0 0 0 1.941 3.113 5.1 5.1 0 0 0 3.324 1.114zm.279-2.053a3.629 3.629 0 0 1 -2.455-.885 4.824 4.824 0 0 1 -1.456-2.414 8.339 8.339 0 0 1 -.176-3.408 9.642 9.642 0 0 1 1.1-3.408 6.993 6.993 0 0 1 2.1-2.4 4.638 4.638 0 0 1 2.7-.873 3.658 3.658 0 0 1 2.465.873 4.781 4.781 0 0 1 1.448 2.4 8.341 8.341 0 0 1 .177 3.408 9.649 9.649 0 0 1 -1.1 3.408 7.05 7.05 0 0 1 -2.112 2.414 4.615 4.615 0 0 1 -2.694.885zm10.032 1.835a.876.876 0 0 0 .675-.328 1.494 1.494 0 0 0 .354-.808l1.62-11.928 5.616 12.67a.536.536 0 0 0 .254.3.751.751 0 0 0 .365.1.866.866 0 0 0 .657-.317 1.481 1.481 0 0 0 .356-.819l2.008-14.79a1.193 1.193 0 0 0 -.132-.819.639.639 0 0 0 -.571-.316.892.892 0 0 0 -.666.316 1.461 1.461 0 0 0 -.364.819l-1.623 11.95-5.615-12.678a.862.862 0 0 0 -.263-.3.6.6 0 0 0 -.354-.12.865.865 0 0 0 -.657.316 1.48 1.48 0 0 0 -.355.819l-2.009 14.79a1.191 1.191 0 0 0 .132.819.641.641 0 0 0 .572.317zm23.151-1.595-2.748-14.7a.732.732 0 0 0 -.721-.764 1.07 1.07 0 0 0 -.928.764l-6.719 14.658a1.975 1.975 0 0 0 -.153.5 1.216 1.216 0 0 0 .136.8.624.624 0 0 0 .568.339.816.816 0 0 0 .5-.186 1.444 1.444 0 0 0 .406-.513l1.368-3.059h6.041l.527 3.059a.876.876 0 0 0 .259.513.652.652 0 0 0 .454.186.886.886 0 0 0 .667-.328 1.424 1.424 0 0 0 .359-.786 1.649 1.649 0 0 0 -.019-.481zm-3.931-11.818 1.351 7.777h-4.863zm6.575 13.413h6.965a.888.888 0 0 0 .667-.328 1.467 1.467 0 0 0 .362-.808 1.176 1.176 0 0 0 -.143-.809.649.649 0 0 0 -.578-.327h-6.091l1.854-13.654a1.173 1.173 0 0 0 -.142-.808.652.652 0 0 0 -.578-.327.871.871 0 0 0 -.651.327 1.47 1.47 0 0 0 -.362.808l-2.008 14.79a1.2 1.2 0 0 0 .134.808.631.631 0 0 0 .569.328zm29.476-17.061a1.01 1.01 0 0 0 -.857.611l-6.628 13-3.232-13a.716.716 0 0 0 -.691-.611.887.887 0 0 0 -.668.327 1.47 1.47 0 0 0 -.362.808l-2.008 14.79a1.172 1.172 0 0 0 .142.808.652.652 0 0 0 .578.328.886.886 0 0 0 .667-.328 1.468 1.468 0 0 0 .363-.808l1.448-10.661 2.6 10.464a.727.727 0 0 0 .716.677 1.015 1.015 0 0 0 .834-.568l5.535-10.769-1.475 10.857a1.172 1.172 0 0 0 .143.808.65.65 0 0 0 .578.328.9.9 0 0 0 .659-.328 1.435 1.435 0 0 0 .37-.808l2.009-14.79a1.173 1.173 0 0 0 -.143-.808.649.649 0 0 0 -.578-.327zm7.968 17.279a6.379 6.379 0 0 0 3.621-1.112 8.888 8.888 0 0 0 2.787-3.113 12.648 12.648 0 0 0 1.465-4.533 10.867 10.867 0 0 0 -.235-4.522 6.047 6.047 0 0 0 -1.952-3.1 5.074 5.074 0 0 0 -3.306-1.114 6.414 6.414 0 0 0 -3.626 1.114 8.783 8.783 0 0 0 -2.786 3.1 12.667 12.667 0 0 0 -1.455 4.522 11.037 11.037 0 0 0 .225 4.533 5.989 5.989 0 0 0 1.942 3.113 5.1 5.1 0 0 0 3.323 1.114zm.279-2.053a3.625 3.625 0 0 1 -2.454-.885 4.824 4.824 0 0 1 -1.456-2.414 8.339 8.339 0 0 1 -.177-3.408 9.643 9.643 0 0 1 1.1-3.408 6.99 6.99 0 0 1 2.1-2.4 4.641 4.641 0 0 1 2.7-.873 3.654 3.654 0 0 1 2.464.873 4.79 4.79 0 0 1 1.449 2.4 8.324 8.324 0 0 1 .176 3.408 9.629 9.629 0 0 1 -1.1 3.408 7.037 7.037 0 0 1 -2.111 2.414 4.618 4.618 0 0 1 -2.7.885zm14.629 2.187a5.6 5.6 0 0 0 2.873-.775 6.374 6.374 0 0 0 2.195-2.163 7.794 7.794 0 0 0 1.108-3.135l1.385-10.2a1.2 1.2 0 0 0 -.132-.819.639.639 0 0 0 -.571-.316.892.892 0 0 0 -.666.316 1.454 1.454 0 0 0 -.364.819l-1.385 10.2a5.061 5.061 0 0 1 -.745 2.076 4.271 4.271 0 0 1 -1.482 1.43 3.818 3.818 0 0 1 -1.937.514 3.325 3.325 0 0 1 -1.874-.514 2.929 2.929 0 0 1 -1.135-1.43 4.157 4.157 0 0 1 -.2-2.076l1.386-10.2a1.2 1.2 0 0 0 -.133-.819.653.653 0 0 0 -.588-.316.89.89 0 0 0 -.665.316 1.447 1.447 0 0 0 -.364.819l-1.386 10.2a6.452 6.452 0 0 0 .272 3.146 4.34 4.34 0 0 0 1.659 2.152 4.8 4.8 0 0 0 2.747.775zm9.622-.349a.876.876 0 0 0 .675-.328 1.487 1.487 0 0 0 .354-.808l1.62-11.928 5.616 12.67a.536.536 0 0 0 .254.3.752.752 0 0 0 .366.1.869.869 0 0 0 .657-.317 1.488 1.488 0 0 0 .355-.819l2.009-14.79a1.2 1.2 0 0 0 -.133-.819.638.638 0 0 0 -.571-.316.892.892 0 0 0 -.666.316 1.453 1.453 0 0 0 -.363.819l-1.623 11.95-5.616-12.681a.852.852 0 0 0 -.263-.3.6.6 0 0 0 -.354-.12.865.865 0 0 0 -.657.316 1.487 1.487 0 0 0 -.355.819l-2.009 14.79a1.191 1.191 0 0 0 .133.819.639.639 0 0 0 .571.317zm23.805-17.061h-9a.816.816 0 0 0 -.621.294 1.363 1.363 0 0 0 -.329.754 1.1 1.1 0 0 0 .124.754.6.6 0 0 0 .541.295h3.635l-1.878 13.828a1.167 1.167 0 0 0 .142.808.652.652 0 0 0 .578.328.886.886 0 0 0 .667-.328 1.46 1.46 0 0 0 .362-.808l1.879-13.828h3.617a.817.817 0 0 0 .621-.295 1.371 1.371 0 0 0 .33-.754 1.106 1.106 0 0 0 -.125-.754.6.6 0 0 0 -.541-.294zm9.123 15.466-2.748-14.7a.732.732 0 0 0 -.721-.764 1.07 1.07 0 0 0 -.928.764l-6.719 14.658a1.975 1.975 0 0 0 -.153.5 1.216 1.216 0 0 0 .136.8.624.624 0 0 0 .568.339.816.816 0 0 0 .5-.186 1.444 1.444 0 0 0 .406-.513l1.374-3.059h6.041l.527 3.059a.88.88 0 0 0 .258.513.656.656 0 0 0 .455.186.888.888 0 0 0 .667-.328 1.424 1.424 0 0 0 .359-.786 1.649 1.649 0 0 0 -.019-.481zm-3.931-11.818 1.35 7.777h-4.862zm6.594 13.412a.879.879 0 0 0 .676-.328 1.493 1.493 0 0 0 .353-.808l2.009-14.79a1.2 1.2 0 0 0 -.133-.819.653.653 0 0 0 -.587-.316.892.892 0 0 0 -.666.316 1.454 1.454 0 0 0 -.364.819l-2.009 14.79a1.172 1.172 0 0 0 .143.808.652.652 0 0 0 .578.328zm5.1 0a.876.876 0 0 0 .675-.328 1.494 1.494 0 0 0 .354-.808l1.62-11.928 5.616 12.67a.536.536 0 0 0 .254.3.751.751 0 0 0 .365.1.866.866 0 0 0 .657-.317 1.481 1.481 0 0 0 .356-.819l2.009-14.79a1.2 1.2 0 0 0 -.133-.819.639.639 0 0 0 -.571-.316.892.892 0 0 0 -.666.316 1.461 1.461 0 0 0 -.364.819l-1.623 11.95-5.618-12.68a.862.862 0 0 0 -.263-.3.6.6 0 0 0 -.354-.12.865.865 0 0 0 -.657.316 1.48 1.48 0 0 0 -.355.819l-2.009 14.79a1.191 1.191 0 0 0 .132.819.641.641 0 0 0 .572.317zm18.913 0h4.375a4.372 4.372 0 0 0 2.319-.656 5.277 5.277 0 0 0 1.78-1.835 6.931 6.931 0 0 0 .909-2.665 4.615 4.615 0 0 0 -.294-2.665 2.615 2.615 0 0 0 -1.611-1.4 4.559 4.559 0 0 0 2.114-3.3 5.071 5.071 0 0 0 -.177-2.348 3.226 3.226 0 0 0 -1.152-1.617 3.189 3.189 0 0 0 -1.924-.578h-4.021a.892.892 0 0 0 -.666.316 1.454 1.454 0 0 0 -.364.819l-2.008 14.79a1.167 1.167 0 0 0 .142.808.652.652 0 0 0 .578.328zm2.24-10.049.668-4.915h3.146a1.838 1.838 0 0 1 1.506.622 2.3 2.3 0 0 1 .349 1.824 2.947 2.947 0 0 1 -.846 1.835 2.373 2.373 0 0 1 -1.676.634h-3.15zm-1.08 7.952.795-5.855h3.5a2.251 2.251 0 0 1 1.812.721 2.544 2.544 0 0 1 .433 2.075 3.71 3.71 0 0 1 -1.03 2.261 2.8 2.8 0 0 1 -2.01.8h-3.5zm11.006 2.1a.879.879 0 0 0 .676-.328 1.493 1.493 0 0 0 .353-.808l2.009-14.79a1.2 1.2 0 0 0 -.133-.819.653.653 0 0 0 -.587-.316.892.892 0 0 0 -.666.316 1.454 1.454 0 0 0 -.364.819l-2.009 14.79a1.172 1.172 0 0 0 .143.808.652.652 0 0 0 .578.328zm10.1.218a6.424 6.424 0 0 0 4.381-1.9 1.473 1.473 0 0 0 .379-.809 1.2 1.2 0 0 0 -.105-.775.537.537 0 0 0 -.49-.3.968.968 0 0 0 -.591.262 5.11 5.11 0 0 1 -3.292 1.442 3.289 3.289 0 0 1 -2.293-.9 5.106 5.106 0 0 1 -1.42-2.425 8.1 8.1 0 0 1 -.191-3.364 9.434 9.434 0 0 1 1.1-3.353 7.435 7.435 0 0 1 2.081-2.436 4.241 4.241 0 0 1 2.536-.9 3.429 3.429 0 0 1 1.654.338 4.057 4.057 0 0 1 1.2 1.1.686.686 0 0 0 .55.284.844.844 0 0 0 .6-.284 1.219 1.219 0 0 0 .341-.721 1.546 1.546 0 0 0 0-.491.854.854 0 0 0 -.214-.4 5.351 5.351 0 0 0 -1.7-1.442 4.791 4.791 0 0 0 -2.153-.437 5.873 5.873 0 0 0 -3.448 1.169 9.575 9.575 0 0 0 -2.778 3.167 12.2 12.2 0 0 0 -1.456 4.4 10.61 10.61 0 0 0 .256 4.435 6.461 6.461 0 0 0 1.917 3.167 4.622 4.622 0 0 0 3.132 1.158zm18.3-17.279a1 1 0 0 0 -.848.546l-5.117 8.192-2.837-8.105a1.452 1.452 0 0 0 -.271-.481.558.558 0 0 0 -.417-.152.912.912 0 0 0 -.656.305 1.306 1.306 0 0 0 -.365.765 1.456 1.456 0 0 0 .091.7l3.261 9.066-.691 5.09a1.172 1.172 0 0 0 .142.808.639.639 0 0 0 .561.328.885.885 0 0 0 .667-.328 1.468 1.468 0 0 0 .363-.808l.691-5.09 5.758-9.066a1.836 1.836 0 0 0 .266-.721 1.186 1.186 0 0 0 -.109-.743.534.534 0 0 0 -.489-.305zm5.209 17.279a6.422 6.422 0 0 0 4.38-1.9 1.473 1.473 0 0 0 .379-.809 1.2 1.2 0 0 0 -.105-.775.536.536 0 0 0 -.49-.3.972.972 0 0 0 -.591.262 5.11 5.11 0 0 1 -3.292 1.442 3.289 3.289 0 0 1 -2.293-.9 5.106 5.106 0 0 1 -1.42-2.425 8.113 8.113 0 0 1 -.191-3.364 9.453 9.453 0 0 1 1.1-3.353 7.435 7.435 0 0 1 2.081-2.436 4.241 4.241 0 0 1 2.536-.9 3.429 3.429 0 0 1 1.654.338 4.045 4.045 0 0 1 1.2 1.1.688.688 0 0 0 .55.284.844.844 0 0 0 .6-.284 1.226 1.226 0 0 0 .342-.721 1.573 1.573 0 0 0 0-.491.845.845 0 0 0 -.214-.4 5.348 5.348 0 0 0 -1.7-1.442 4.8 4.8 0 0 0 -2.154-.437 5.873 5.873 0 0 0 -3.448 1.169 9.575 9.575 0 0 0 -2.778 3.167 12.2 12.2 0 0 0 -1.456 4.4 10.626 10.626 0 0 0 .256 4.435 6.461 6.461 0 0 0 1.917 3.167 4.622 4.622 0 0 0 3.133 1.158zm8.072-.218h6.967a.888.888 0 0 0 .667-.328 1.467 1.467 0 0 0 .362-.808 1.176 1.176 0 0 0 -.143-.809.649.649 0 0 0 -.578-.327h-6.095l1.854-13.654a1.173 1.173 0 0 0 -.142-.808.652.652 0 0 0 -.578-.327.871.871 0 0 0 -.651.327 1.47 1.47 0 0 0 -.362.808l-2.008 14.79a1.2 1.2 0 0 0 .134.808.631.631 0 0 0 .569.328zm10.82 0a.876.876 0 0 0 .675-.328 1.487 1.487 0 0 0 .354-.808l2.009-14.79a1.2 1.2 0 0 0 -.133-.819.653.653 0 0 0 -.588-.316.892.892 0 0 0 -.665.316 1.454 1.454 0 0 0 -.364.819l-2.009 14.79a1.172 1.172 0 0 0 .143.808.65.65 0 0 0 .578.328zm5.1 0a.876.876 0 0 0 .675-.328 1.494 1.494 0 0 0 .354-.808l1.62-11.928 5.616 12.67a.536.536 0 0 0 .254.3.751.751 0 0 0 .365.1.866.866 0 0 0 .657-.317 1.481 1.481 0 0 0 .356-.819l2.008-14.79a1.2 1.2 0 0 0 -.132-.819.639.639 0 0 0 -.571-.316.892.892 0 0 0 -.666.316 1.454 1.454 0 0 0 -.364.819l-1.623 11.95-5.62-12.683a.862.862 0 0 0 -.263-.3.6.6 0 0 0 -.354-.12.865.865 0 0 0 -.657.316 1.488 1.488 0 0 0 -.356.819l-2.008 14.79a1.191 1.191 0 0 0 .132.819.641.641 0 0 0 .572.317zm23.732-8.848h-3.146a.914.914 0 0 0 -.67.284 1.232 1.232 0 0 0 -.342.721.967.967 0 0 0 .147.721.683.683 0 0 0 .592.284h2.322l-.528 3.889a4.743 4.743 0 0 1 -2.858 1.092 3.289 3.289 0 0 1 -2.293-.9 5.106 5.106 0 0 1 -1.42-2.425 8.113 8.113 0 0 1 -.191-3.364 9.453 9.453 0 0 1 1.1-3.353 7.435 7.435 0 0 1 2.081-2.436 4.241 4.241 0 0 1 2.536-.9 3.429 3.429 0 0 1 1.654.338 4.045 4.045 0 0 1 1.2 1.1.675.675 0 0 0 .534.284.859.859 0 0 0 .619-.284 1.226 1.226 0 0 0 .342-.721 1.573 1.573 0 0 0 0-.491.845.845 0 0 0 -.214-.4 5.348 5.348 0 0 0 -1.7-1.442 4.792 4.792 0 0 0 -2.154-.437 5.873 5.873 0 0 0 -3.448 1.169 9.575 9.575 0 0 0 -2.778 3.167 12.2 12.2 0 0 0 -1.456 4.4 10.643 10.643 0 0 0 .256 4.435 6.461 6.461 0 0 0 1.917 3.167 4.622 4.622 0 0 0 3.133 1.158 6.3 6.3 0 0 0 4.38-1.9 1.293 1.293 0 0 0 .379-.809l.71-5.221a1.191 1.191 0 0 0 -.134-.819.639.639 0 0 0 -.571-.317zm17.424 7.253-2.748-14.7a.732.732 0 0 0 -.721-.764 1.07 1.07 0 0 0 -.928.764l-6.72 14.658a1.969 1.969 0 0 0 -.152.5 1.21 1.21 0 0 0 .136.8.624.624 0 0 0 .568.339.811.811 0 0 0 .5-.186 1.422 1.422 0 0 0 .406-.513l1.375-3.059h6.041l.527 3.059a.875.875 0 0 0 .258.513.655.655 0 0 0 .455.186.888.888 0 0 0 .667-.328 1.431 1.431 0 0 0 .359-.786 1.685 1.685 0 0 0 -.019-.481zm-3.936-11.821 1.35 7.777h-4.863zm9.86 13.631a5.5 5.5 0 0 0 2.406-.557 5.157 5.157 0 0 0 1.971-1.682 5.9 5.9 0 0 0 1.022-2.7 4.765 4.765 0 0 0 -.637-3.484 4.007 4.007 0 0 0 -2.915-1.584 3.577 3.577 0 0 1 -2.387-1 2.414 2.414 0 0 1 -.449-1.9 2.645 2.645 0 0 1 1.044-1.868 3.547 3.547 0 0 1 2.158-.645 2.5 2.5 0 0 1 1.655.514 3.184 3.184 0 0 1 .932 1.5.867.867 0 0 0 .276.448.683.683 0 0 0 .449.164.749.749 0 0 0 .458-.153 1.185 1.185 0 0 0 .444-.787 1.7 1.7 0 0 0 -.095-.786 4.972 4.972 0 0 0 -1.387-2.184 3.454 3.454 0 0 0 -2.336-.765 5.741 5.741 0 0 0 -2.47.535 4.93 4.93 0 0 0 -1.894 1.551 5.141 5.141 0 0 0 -.941 2.414 4.274 4.274 0 0 0 .745 3.31 4.363 4.363 0 0 0 3.066 1.583 2.647 2.647 0 0 1 2.559 3.208 3.006 3.006 0 0 1 -1.156 2.064 3.567 3.567 0 0 1 -2.239.754 3.13 3.13 0 0 1 -1.889-.59 2.4 2.4 0 0 1 -1-1.442 1.034 1.034 0 0 0 -.287-.557.684.684 0 0 0 -.485-.208.5.5 0 0 0 -.171.022 1.091 1.091 0 0 0 -.551.339 1.08 1.08 0 0 0 -.263.579 1.42 1.42 0 0 0 .024.437 4.082 4.082 0 0 0 1.5 2.512 4.421 4.421 0 0 0 2.839.961zm11.577 0a5.5 5.5 0 0 0 2.406-.557 5.157 5.157 0 0 0 1.971-1.682 5.9 5.9 0 0 0 1.022-2.7 4.765 4.765 0 0 0 -.637-3.484 4.007 4.007 0 0 0 -2.915-1.584 3.577 3.577 0 0 1 -2.387-1 2.414 2.414 0 0 1 -.449-1.9 2.645 2.645 0 0 1 1.044-1.868 3.547 3.547 0 0 1 2.158-.645 2.5 2.5 0 0 1 1.655.514 3.184 3.184 0 0 1 .932 1.5.867.867 0 0 0 .276.448.683.683 0 0 0 .449.164.749.749 0 0 0 .458-.153 1.185 1.185 0 0 0 .444-.787 1.7 1.7 0 0 0 -.095-.786 4.98 4.98 0 0 0 -1.386-2.184 3.458 3.458 0 0 0 -2.337-.765 5.741 5.741 0 0 0 -2.47.535 4.93 4.93 0 0 0 -1.894 1.551 5.141 5.141 0 0 0 -.941 2.414 4.274 4.274 0 0 0 .745 3.31 4.363 4.363 0 0 0 3.066 1.583 2.647 2.647 0 0 1 2.559 3.208 3.006 3.006 0 0 1 -1.156 2.064 3.567 3.567 0 0 1 -2.239.754 3.13 3.13 0 0 1 -1.889-.59 2.4 2.4 0 0 1 -1-1.442 1.034 1.034 0 0 0 -.287-.557.684.684 0 0 0 -.485-.208.5.5 0 0 0 -.171.022 1.091 1.091 0 0 0 -.551.339 1.08 1.08 0 0 0 -.263.579 1.42 1.42 0 0 0 .024.437 4.082 4.082 0 0 0 1.5 2.512 4.419 4.419 0 0 0 2.839.961zm13.479 0a6.374 6.374 0 0 0 3.617-1.114 8.868 8.868 0 0 0 2.787-3.113 12.649 12.649 0 0 0 1.466-4.533 10.866 10.866 0 0 0 -.236-4.522 6.046 6.046 0 0 0 -1.951-3.1 5.077 5.077 0 0 0 -3.307-1.114 6.416 6.416 0 0 0 -3.626 1.114 8.79 8.79 0 0 0 -2.785 3.1 12.688 12.688 0 0 0 -1.456 4.522 11.053 11.053 0 0 0 .226 4.533 5.994 5.994 0 0 0 1.941 3.113 5.1 5.1 0 0 0 3.324 1.114zm.279-2.053a3.629 3.629 0 0 1 -2.455-.885 4.824 4.824 0 0 1 -1.456-2.414 8.357 8.357 0 0 1 -.176-3.408 9.642 9.642 0 0 1 1.1-3.408 6.993 6.993 0 0 1 2.1-2.4 4.639 4.639 0 0 1 2.7-.873 3.656 3.656 0 0 1 2.464.873 4.79 4.79 0 0 1 1.449 2.4 8.359 8.359 0 0 1 .176 3.408 9.629 9.629 0 0 1 -1.1 3.408 7.05 7.05 0 0 1 -2.112 2.414 4.615 4.615 0 0 1 -2.694.885zm14.7 2.053a6.424 6.424 0 0 0 4.381-1.9 1.48 1.48 0 0 0 .379-.809 1.212 1.212 0 0 0 -.1-.775.537.537 0 0 0 -.49-.3.968.968 0 0 0 -.591.262 5.11 5.11 0 0 1 -3.292 1.442 3.287 3.287 0 0 1 -2.293-.9 5.108 5.108 0 0 1 -1.421-2.425 8.129 8.129 0 0 1 -.191-3.364 9.453 9.453 0 0 1 1.1-3.353 7.447 7.447 0 0 1 2.081-2.436 4.244 4.244 0 0 1 2.537-.9 3.427 3.427 0 0 1 1.653.338 4.047 4.047 0 0 1 1.2 1.1.686.686 0 0 0 .55.284.84.84 0 0 0 .6-.284 1.22 1.22 0 0 0 .342-.721 1.543 1.543 0 0 0 0-.491.845.845 0 0 0 -.214-.4 5.337 5.337 0 0 0 -1.7-1.442 4.791 4.791 0 0 0 -2.153-.437 5.876 5.876 0 0 0 -3.449 1.169 9.575 9.575 0 0 0 -2.778 3.167 12.2 12.2 0 0 0 -1.456 4.4 10.643 10.643 0 0 0 .256 4.435 6.461 6.461 0 0 0 1.917 3.167 4.622 4.622 0 0 0 3.133 1.158zm8.09-.218a.877.877 0 0 0 .675-.328 1.5 1.5 0 0 0 .354-.808l2.009-14.79a1.2 1.2 0 0 0 -.133-.819.653.653 0 0 0 -.588-.316.892.892 0 0 0 -.666.316 1.453 1.453 0 0 0 -.363.819l-2.009 14.79a1.172 1.172 0 0 0 .142.808.653.653 0 0 0 .579.328zm14.284-1.595-2.749-14.7a.732.732 0 0 0 -.72-.764 1.072 1.072 0 0 0 -.929.764l-6.719 14.658a1.975 1.975 0 0 0 -.153.5 1.216 1.216 0 0 0 .136.8.624.624 0 0 0 .568.339.814.814 0 0 0 .5-.186 1.433 1.433 0 0 0 .406-.513l1.374-3.059h6.041l.527 3.059a.876.876 0 0 0 .259.513.652.652 0 0 0 .454.186.886.886 0 0 0 .667-.328 1.424 1.424 0 0 0 .359-.786 1.68 1.68 0 0 0 -.018-.481zm-3.931-11.818 1.35 7.777h-4.863zm15.068-3.648h-9a.819.819 0 0 0 -.621.294 1.363 1.363 0 0 0 -.329.754 1.1 1.1 0 0 0 .125.754.6.6 0 0 0 .54.295h3.635l-1.878 13.828a1.172 1.172 0 0 0 .142.808.653.653 0 0 0 .578.328.886.886 0 0 0 .667-.328 1.468 1.468 0 0 0 .363-.808l1.872-13.828h3.618a.817.817 0 0 0 .62-.295 1.371 1.371 0 0 0 .33-.754 1.106 1.106 0 0 0 -.125-.754.6.6 0 0 0 -.54-.294zm1.3 17.061a.876.876 0 0 0 .675-.328 1.487 1.487 0 0 0 .354-.808l2.009-14.79a1.2 1.2 0 0 0 -.133-.819.653.653 0 0 0 -.588-.316.889.889 0 0 0 -.665.316 1.447 1.447 0 0 0 -.364.819l-2.009 14.79a1.172 1.172 0 0 0 .143.808.65.65 0 0 0 .578.328zm10.285.218a6.379 6.379 0 0 0 3.618-1.114 8.888 8.888 0 0 0 2.787-3.113 12.648 12.648 0 0 0 1.465-4.533 10.867 10.867 0 0 0 -.235-4.522 6.047 6.047 0 0 0 -1.952-3.1 5.074 5.074 0 0 0 -3.306-1.114 6.414 6.414 0 0 0 -3.626 1.114 8.783 8.783 0 0 0 -2.786 3.1 12.667 12.667 0 0 0 -1.456 4.522 11.037 11.037 0 0 0 .225 4.533 5.989 5.989 0 0 0 1.942 3.113 5.1 5.1 0 0 0 3.323 1.114zm.279-2.053a3.625 3.625 0 0 1 -2.454-.885 4.824 4.824 0 0 1 -1.456-2.414 8.339 8.339 0 0 1 -.177-3.408 9.643 9.643 0 0 1 1.1-3.408 6.99 6.99 0 0 1 2.1-2.4 4.641 4.641 0 0 1 2.7-.873 3.654 3.654 0 0 1 2.464.873 4.79 4.79 0 0 1 1.449 2.4 8.324 8.324 0 0 1 .176 3.408 9.629 9.629 0 0 1 -1.1 3.408 7.037 7.037 0 0 1 -2.111 2.414 4.618 4.618 0 0 1 -2.695.885zm10.03 1.835a.879.879 0 0 0 .676-.328 1.5 1.5 0 0 0 .354-.808l1.62-11.928 5.615 12.67a.538.538 0 0 0 .255.3.745.745 0 0 0 .365.1.869.869 0 0 0 .657-.317 1.481 1.481 0 0 0 .355-.819l2.009-14.79a1.2 1.2 0 0 0 -.133-.819.638.638 0 0 0 -.571-.316.892.892 0 0 0 -.666.316 1.453 1.453 0 0 0 -.363.819l-1.623 11.95-5.617-12.68a.842.842 0 0 0 -.263-.3.6.6 0 0 0 -.353-.12.869.869 0 0 0 -.658.316 1.487 1.487 0 0 0 -.355.819l-2.009 14.79a1.2 1.2 0 0 0 .133.819.639.639 0 0 0 .571.317z"/><path d="m449.844 240a58.078 58.078 0 1 1 -58.156 58.078 58.117 58.117 0 0 1 58.156-58.078zm0 9.688a48.391 48.391 0 1 1 -48.469 48.39 48.429 48.429 0 0 1 48.469-48.39z"/><path d="m449.844 253.062a45.016 45.016 0 1 1 -45.063 45.016 45.039 45.039 0 0 1 45.063-45.016zm-.482 23.238c-1.244 2.443-19.218 40.4-21.324 44.524-1.735 3.4.557 3.387 1.454 3.387h6.785a2.857 2.857 0 0 0 2.908-1.935c.754-1.691 3.28-7.26 3.877-7.26.481 0 8.076-.015 10.176 0 1.645.012.546 9.1 3.393 9.2 1.762.061 4.76 0 6.784 0s3.19-.72 2.908-2.9-5.59-43.306-5.815-45.492c-.2-1.935-1.224-3.388-2.423-3.388h-4.847c-2.385-.011-2.645 1.441-3.876 3.864zm-1.939 28.553c-1.167 0 3.582-8.145 3.877-8.711.356-.684.969-.213.969 2.42v3.871c0 .994.088 2.42-.484 2.42z"/><path d="m224.964 345.038a58.075 58.075 0 1 1 .024-92.941c17.4 12.233 39.82 13.788 61.567-.021a58.076 58.076 0 1 1 -2.458 91.018c-18.469-12.841-42.129-11.183-59.133 1.944zm-34.87-94.882a48.407 48.407 0 1 1 -48.469 48.406 48.437 48.437 0 0 1 48.469-48.406zm131.328 0a48.407 48.407 0 1 1 -48.453 48.406 48.429 48.429 0 0 1 48.453-48.406z"/><path d="m322.422 252.562a45 45 0 1 1 -45.078 45 45.04 45.04 0 0 1 45.078-45zm2.909 70.646c8.045 0 15.6-8.475 16.477-17.906.481-5.186-3.1-7-2.908-7.793s1.347-1.385 2.423-2.37 3.877-4.662 3.877-11.615c0-6.915-7.631-12.1-12.115-12.1h-17.612c-3.19 0-3.12 1.647-3.424 3.388s-7.3 41.669-7.827 44.524c-.419 2.288-.325 3.85.978 3.871.8.014 7.383 0 8.317 0h11.814zm-4.362-35.808c.936-5.394.666-5.254 3.877-5.324s6.394-.405 8.239.968a4.074 4.074 0 0 1 .969 3.388c-.108 1.549-1.895 5.807-5.816 5.807h-7.753c-.549-.004-.242-.658.484-4.839zm-3.579 20.369c.949-5.347.675-5.207 3.928-5.277s6.477-.4 8.346.96a3.977 3.977 0 0 1 .982 3.357c-.109 1.536-1.919 5.756-5.891 5.756h-7.855c-.556-.004-.246-.652.49-4.8z"/><path d="m190.094 252.562a45 45 0 1 1 -45.063 45 45.032 45.032 0 0 1 45.063-45zm-9.642 45.983c-2 11.218-3.965 22.176-4.1 22.728-.257 1.059-.534 1.935-1.467 1.935s-7.517.014-8.317 0c-1.3-.021-1.4-1.583-.978-3.871.522-2.855 7.523-42.784 7.827-44.524s.234-3.388 3.425-3.388h5.381c1.16 0 2.1.507 2.446 3.388s3.154 17.394 3.968 21.778c.674 3.629 1.646 4.013 2.424 2.42.4-.825 13.268-23.6 13.372-24.2.3-1.741.234-3.388 3.424-3.388h5.381c1.161 0 2.95.531 2.446 3.388-1.043 5.915-8.059 45.4-8.316 46.46s-.534 1.935-1.468 1.935-7.517.014-8.316 0c-1.3-.021-1.4-1.583-.979-3.871.226-1.236 1.665-9.411 3.249-18.43a13.294 13.294 0 0 0 -2.493 3.911c-.48 1.123-5.42 9.889-5.816 10.647s-.61 1.936-3.877 1.936-4.088-.289-4.846-4.84-1.883-15.815-2.37-14.014z"/><path d="m62.156 240.469a58.078 58.078 0 1 1 -58.156 58.078 58.116 58.116 0 0 1 58.156-58.078zm0 9.687a48.407 48.407 0 1 1 -48.469 48.406 48.437 48.437 0 0 1 48.469-48.406z"/><path d="m62.156 252.562a45 45 0 1 1 -45.062 45 45.032 45.032 0 0 1 45.062-45zm2.421 18.863h5.331c1.149 0 2.922.531 2.423 3.388-1.034 5.915-7.984 45.4-8.239 46.46s-.529 1.935-1.454 1.935-7.446.014-8.238 0c-1.291-.021-1.384-1.583-.969-3.871.517-2.855 7.453-42.784 7.754-44.524s.232-3.388 3.392-3.388z"/></g></g></svg>