<svg height="512" viewBox="0 0 512 512" width="512" xmlns="http://www.w3.org/2000/svg"><g fill="#fff" fill-rule="evenodd"><path d="m257.5 391c37.831 0 68.5 6.716 68.5 15s-30.669 15-68.5 15-68.5-6.716-68.5-15 30.669-15 68.5-15zm-1 36c29 0 52.5 6.716 52.5 15s-23.5 15-52.5 15-52.5-6.716-52.5-15 23.505-15 52.5-15zm-.5 36c24.3 0 44 6.716 44 15s-19.7 15-44 15-44-6.716-44-15 19.7-15 44-15z"/><path d="m256 113a136 136 0 1 1 -136 136 136 136 0 0 1 136-136zm1 21a115 115 0 1 1 -115 115 115 115 0 0 1 115-115z"/><path d="m256 150a99 99 0 1 1 -99 99 99 99 0 0 1 99-99zm1 11a88 88 0 1 1 -88 88 88 88 0 0 1 88-88z"/><path d="m256 213a36 36 0 1 1 -36 36 36 36 0 0 1 36-36zm0 6a30 30 0 1 1 -30 30 30 30 0 0 1 30-30z"/><path d="m254 160h6v55h-6zm37 86h55v6h-55zm-95.774-60.993-4.226 4.228 38.778 38.75 4.23-4.228zm-27.226 60.993h55v6h-55zm86 36h6v55h-6zm64.774 29.993 4.23-4.228-38.778-38.75-4.226 4.228zm-123.548 0-4.226-4.228 38.778-38.75 4.23 4.228zm123.548-126.986 4.23 4.228-38.778 38.75-4.226-4.228z"/><path d="m256.99 102.987c-7.178 0-13-4.946-12.994-11.057l.02-60.855c0-6.111 5.822-11.068 13-11.072s13 4.946 12.994 11.057l-.02 60.855c-.002 6.11-5.822 11.067-13 11.072zm-166.715-17.687c-5.097 5.089-5.741 12.7-1.438 17l42.853 42.831c4.3 4.3 11.923 3.659 17.021-1.432s5.741-12.699 1.438-16.999l-42.849-42.835c-4.307-4.301-11.928-3.66-17.025 1.435zm-63.262 163.709c0 7.179 4.945 13 11.055 13l60.849-.02c6.11 0 11.067-5.823 11.072-13s-4.946-13-11.056-13l-60.848.02c-6.11 0-11.067 5.821-11.072 13zm394.712-163.709c5.1 5.092 5.741 12.706 1.438 17.007l-42.853 42.828c-4.3 4.3-11.923 3.659-17.021-1.432s-5.741-12.703-1.438-17.003l42.849-42.835c4.307-4.301 11.928-3.66 17.025 1.435zm63.262 163.712c0 7.179-4.946 13-11.056 13l-60.848-.02c-6.11 0-11.067-5.823-11.072-13s4.946-13 11.056-13l60.848.02c6.11-.003 11.067 5.818 11.072 12.997z"/></g></svg>