<svg height="296.187" viewBox="0 0 506.125 296.187" width="506.125" xmlns="http://www.w3.org/2000/svg"><g transform="translate(-2.875 -105.875)"><path d="m353.175 233.483c-28.044 13.455-47.477 42.7-47.477 76.6 0 46.663 36.811 84.491 82.219 84.491s82.219-37.828 82.219-84.491c0-45.713-35.327-82.947-79.456-84.444" fill="none" stroke="#fff" stroke-linejoin="round" stroke-width="15"/><path d="m125.5 232.134c-29.12-10.949-63.745-4.787-88.338 18.618-33.846 32.213-35.874 84.891-4.528 117.658s84.2 33.217 118.046 1a85.609 85.609 0 0 0 26.146-51.594m-1.367-28.288a79.712 79.712 0 0 0 -18.376-35.749" fill="none" stroke="#fff" stroke-linejoin="round" stroke-width="15"/><g fill="#fff" fill-rule="evenodd"><path d="m91.431 300.143s-13.838 4.1-9.966 14.91 16.588 10.6 19.932 4.97c11.625-1.042 94.676 0 94.676 0s1.521 10.988 14.949 14.911c-1.6 9.489-4.983 29.82-4.983 29.82h-9.966v9.94h24.915v-9.94h-9.966l4.983-29.82s27.264 4.9 24.915-34.791c25.781-27.187 94.676-99.4 94.676-99.4l44.847 104.371s-2.806 9.6 0 14.91c3.954 7.486 15.088 8.618 19.931 4.971 6.981-5.257 7.763-15.278 4.984-19.881-2.368-3.921-5.411-5.833-9.966-4.97-3.7-8.985-59.8-139.162-59.8-139.162s-5.134-9.35 4.983-9.94 30.022-8.645 34.881-24.85-4.874-27.532-14.949-14.91 4.387 19.951-14.949 24.85-32.732 10.408-29.9 19.88 4.983 9.94 4.983 9.94l-129.551 39.76-19.932-54.671s30.792-13.489 34.881-14.91 24.67-11.2-24.915-9.94-65.6-6.541-64.779 4.97 13.912 26.335 29.9 24.85c11.906-.069 14.949 0 14.949 0l19.932 54.671zm224.233-109.343-114.608 29.82 24.915 69.58zm-134.54 39.76-69.761 74.551h84.71l4.983-9.94zm44.847 29.821v14.91l9.966-14.91h4.983v-9.94h-19.932v9.94z"/><path d="m469.409 163h38.252a1.34 1.34 0 0 0 1.339-1.339v-14.322a1.34 1.34 0 0 0 -1.339-1.339h-38.251a.092.092 0 0 1 -.052-.087v-38.263a1.339 1.339 0 0 0 -1.34-1.339h-14.139a1.339 1.339 0 0 0 -1.339 1.339v38.3a.054.054 0 0 1 -.032.052h-37.169a1.34 1.34 0 0 0 -1.339 1.337v14.322a1.34 1.34 0 0 0 1.339 1.339h37.161a.059.059 0 0 1 .036.061v36.339a1.34 1.34 0 0 0 1.339 1.339h14.139a1.34 1.34 0 0 0 1.34-1.339v-36.369c.004-.022.015-.031.055-.031z"/></g></g></svg>