<svg height="398" viewBox="0 0 494 398" width="494" xmlns="http://www.w3.org/2000/svg"><g fill="#fff"><rect height="34.625" rx="5" width="232.75" x="129.219" y="363.375"/><g fill-rule="evenodd" transform="translate(-9 -57)"><path d="m255 57h2a7 7 0 0 1 7 7v94a7 7 0 0 1 -7 7h-2a7 7 0 0 1 -7-7v-94a7 7 0 0 1 7-7zm127.531 166.952 81.406-47a7 7 0 0 1 9.562 2.562l1 1.732a7 7 0 0 1 -2.562 9.562l-81.406 47a7 7 0 0 1 -9.562-2.562l-1-1.732a7 7 0 0 1 2.562-9.562zm-60.865-52.045 47-81.407a7 7 0 0 1 9.562-2.562l1.732 1a7 7 0 0 1 2.562 9.562l-47 81.407a7 7 0 0 1 -9.562 2.562l-1.732-1a7 7 0 0 1 -2.562-9.562zm80.334 125.093h94a7 7 0 0 1 7 7v2a7 7 0 0 1 -7 7h-94a7 7 0 0 1 -7-7v-2a7 7 0 0 1 7-7zm-272.717-73.048-81.283-47a6.983 6.983 0 0 0 -9.547 2.562l-1 1.732a7.006 7.006 0 0 0 2.558 9.562l81.281 47a6.983 6.983 0 0 0 9.547-2.562l1-1.732a7.006 7.006 0 0 0 -2.556-9.562zm60.772-52.045-46.928-81.407a6.983 6.983 0 0 0 -9.547-2.562l-1.73 1a7.006 7.006 0 0 0 -2.558 9.562l46.928 81.407a6.983 6.983 0 0 0 9.547 2.562l1.729-1a7.006 7.006 0 0 0 2.559-9.562zm-174.055 125.093h93.844a7 7 0 0 1 7 7v2a7 7 0 0 1 -7 7h-93.844a7 7 0 0 1 -7-7v-2a7 7 0 0 1 7-7z"/><path d="m204.6 405.055c-1.858-5.068-1.867-13.19-1.867-26.21v-107.309c0-38.355-3.411-34.616 34.575-34.616h34.576c37.878 0 34.576-3.754 34.576 34.616v107.309c0 12.9.006 20.99-1.771 26.067-.022.188.094.219.142.219h25.832c33.853 0 34.575.172 34.575-34.616v-78.21c0-47.323-49.542-96.924-96.811-96.924h-27.662c-41.456 0-96.812 48.585-96.812 100.386v74.748c0 34.34.275 34.616 34.576 34.616h26.042c.034 0 .041-.014.029-.076z"/><path d="m213.094 262.625h83v124.594h-83zm31.128 17.3h20.746l-6.915 62.308h-6.915zm0 72.7h20.75v20.75h-20.75z"/></g><rect height="6.907" rx="1" width="27.688" x="231.75" y="193.781"/><circle cx="246.188" cy="345.485" r="10.969"/></g></svg>