<svg height="512" viewBox="0 0 512 512" width="512" xmlns="http://www.w3.org/2000/svg"><circle cx="256" cy="256" fill="#496d47" r="250"/><g fill-rule="evenodd"><path d="m296.93 502.61c-44.974-46.8-95.754-99.648-135.255-140.757 21.731 13.129 37.739 1.426 57.325-7.853 22.747-10.777 41.2-25.529 97-29-15.047-14.114-33.829-31.94-59-56 41.884-91.468 65.6-142.122 41-173-.34-.427 116.132 120.2 202.856 210.4.033.044.064.055.039.1-20.657 100.7-101.851 179.313-203.88 196.152a.128.128 0 0 1 -.085-.042z" fill="#3a5439"/><path d="m201.785 369.909 5.049 5.063 85.114-15.188 36.787-30.376h23.082l-49.77 44.117-23.8 5.063v56.412h-46.168v-49.18l-27.409 7.233-22.361-17.353z" fill="#fff"/><path d="m86.375 294.693a38.109 38.109 0 0 1 7.213-7.956c2.126-1.771 5.154-3.741 20.2.724 30.1 8.934 82.41 5.682 133.442 1.446s86.55-13.571 156.524.723c25.9 5.29 23.254 26.194 23.082 30.376-.274 6.667 3.267 9.644-32.459 4.339s-73.034-.072-93.77 2.893-36.752 4.156-65.639 18.8-42.912 26.422-61.312 21.7-79.145-43.208-84.396-49.178c-5.33-6.06-4.842-6.24-2.885-23.867z" fill="#fff"/><path d="m257.325 77a52.726 52.726 0 0 1 52.656 52.8c0 29.158-31.283 93.7-52.656 140.307-21.025-45.182-52.655-111.153-52.655-140.307a52.726 52.726 0 0 1 52.655-52.8zm.356 17.353a35.072 35.072 0 1 1 -34.993 35.073 35.032 35.032 0 0 1 34.993-35.073z" fill="#fff"/></g></svg>