<svg height="512" viewBox="0 0 512 512" width="512" xmlns="http://www.w3.org/2000/svg"><g fill="#fff" fill-rule="evenodd"><path d="m186 0h140a45 45 0 0 1 45 45v422a45 45 0 0 1 -45 45h-140a45 45 0 0 1 -45-45v-422a45 45 0 0 1 45-45zm5 20h130a30 30 0 0 1 30 30v412a30 30 0 0 1 -30 30h-130a30 30 0 0 1 -30-30v-412a30 30 0 0 1 30-30z"/><path d="m179 164h154c0-4.466-.006-18.417-.006-22h-153.977c0 3.979-.017 19-.017 22zm-38 208h-96a45 45 0 0 1 -45-45v-140a45 45 0 0 1 45-45h96v21.957h-89.9a28 28 0 0 0 -28.1 27.913v130.26a28 28 0 0 0 28.1 27.913h89.91c0 2.62-.01 19.826-.01 21.957zm230 0h96a45 45 0 0 0 45-45v-140a45 45 0 0 0 -45-45h-96v21.957h89.9a28 28 0 0 1 28.1 27.913v130.26a28 28 0 0 1 -28.1 27.913h-89.91c0 2.62.01 19.826.01 21.957zm-192 0h154c0-4.466-.006-18.417-.006-22h-153.977c0 3.979-.017 19-.017 22z"/><path d="m205.545 186a19.546 19.546 0 1 1 -19.545 19.545 19.546 19.546 0 0 1 19.545-19.545zm100.839 0a19.617 19.617 0 1 1 -19.617 19.616 19.617 19.617 0 0 1 19.617-19.616zm-100.839 100.909a19.546 19.546 0 1 1 -19.545 19.546 19.546 19.546 0 0 1 19.545-19.546zm100.839-.114a19.6 19.6 0 1 1 -19.617 19.6 19.61 19.61 0 0 1 19.617-19.595zm-50.384-50.395a19.6 19.6 0 1 1 -19.6 19.6 19.6 19.6 0 0 1 19.6-19.6z"/></g></svg>