<svg height="469.438" viewBox="0 0 503 469.438" width="503" xmlns="http://www.w3.org/2000/svg"><g transform="translate(-4.5 -23)"><path d="m379.78 183.1c34.991.177 67.005 17.247 71.863 39.246l42.727 193.466c7.675 34.752-24.292 64.611-71.859 64.611h-333.028c-47.567 0-79.533-29.859-71.859-64.611l42.727-193.467c4.86-22.007 36.893-39.081 71.9-39.246" fill="none" stroke="#fff" stroke-linecap="round" stroke-linejoin="round" stroke-width="24"/><path d="m257.463 23c59.891 0 108.442 48.383 108.442 108.066s-48.551 200.694-108.442 200.694-108.442-141.01-108.442-200.694 48.551-108.066 108.442-108.066zm-.036 17.1a91.55 91.55 0 1 1 -91.264 91.55 91.407 91.407 0 0 1 91.264-91.55z" fill="#fff" fill-rule="evenodd"/><path d="m199.6 178.238c3.576 4.453 60.533-34.106 60.533-34.106l-14.315-17.821s-49.796 47.469-46.218 51.927z" fill="#fff" fill-rule="evenodd"/><path d="m315.826 84.364c3.593 4.429-46.445 51.636-46.445 51.636l-14.381-17.729s57.229-38.341 60.826-33.907z" fill="none" stroke="#fff" stroke-width="8"/></g><circle cx="253.5" cy="107" fill="#fff" r="20"/></svg>