<svg height="360" viewBox="0 0 495 360" width="495" xmlns="http://www.w3.org/2000/svg"><g transform="translate(-9 -59)"><path d="m35.81 327.533c-46.81-150.654 155.5-215.416 202.667-63.614 48.326 155.529 252.2 95.8 203.854-59.8" style="fill:none;stroke:#fff;stroke-linecap:round;stroke-linejoin:round;stroke-width:24.5;stroke-dasharray:98 49"/><path d="m452.042 59a51.87 51.87 0 0 1 51.958 51.781c0 28.6-23.263 96.164-51.958 96.164s-51.958-67.567-51.958-96.164a51.869 51.869 0 0 1 51.958-51.781zm-.007 14.809a32.046 32.046 0 1 1 -32.177 32.046 32.111 32.111 0 0 1 32.177-32.046zm-410.859 281.069a32.061 32.061 0 1 1 -32.176 32.061 32.119 32.119 0 0 1 32.176-32.061z" fill="#fff" fill-rule="evenodd"/></g></svg>